<svg width="44" height="38" viewBox="0 0 44 38" fill="none" xmlns="http://www.w3.org/2000/svg">
<g id="Traced/image 84">
<path id="Vector" fillRule="evenodd" clipRule="evenodd" d="M6.43255 4.03523C5.65485 4.22481 4.964 4.9213 4.78547 5.69589C4.71865 5.98553 4.71865 25.052 4.78542 25.3416C4.86964 25.7069 5.0828 26.079 5.38105 26.3811C5.82755 26.8334 6.38735 27.0688 7.01651 27.0688H7.31733V24.6536V22.2384H6.7669H6.21652L6.22886 14.0875C6.24125 5.93937 6.24129 5.93665 6.33986 5.8046C6.3941 5.73195 6.49788 5.62817 6.57053 5.57393L6.70262 5.47532L21.8016 5.46312L36.9005 5.45097L37.1133 5.55877C37.2394 5.62272 37.3654 5.73477 37.4228 5.83401C37.5188 6.00026 37.5195 6.05789 37.5195 14.1079V22.2144L33.801 22.2267L30.0826 22.2389V24.6553V27.0717L33.6815 27.0583L37.2804 27.0449L37.5589 26.9325C38.1588 26.6905 38.7168 26.1123 38.9167 25.5258C38.9974 25.2892 39.0029 24.7447 39.0158 15.7101C39.0253 9.08083 39.0138 6.04947 38.9783 5.83401C38.8317 4.94311 38.0914 4.18062 37.2141 4.01686C36.8098 3.94144 6.74375 3.95937 6.43255 4.03523ZM14.6069 11.8123C14.1218 11.8342 14.0571 11.8485 13.843 11.9809C13.6982 12.0705 13.5538 12.2149 13.4642 12.3597L13.3195 12.5937L13.3052 14.2356L13.2909 15.8775H14.0346H14.7782V14.5862V13.2949H21.3065H27.8347V21.4731V29.6514L27.5358 29.6561C27.3714 29.6586 25.2784 29.664 22.8847 29.668L18.5326 29.6753L18.5068 30.6797C18.4786 31.7834 18.432 31.9954 18.1245 32.4199C18.0464 32.5276 17.9826 32.6268 17.9826 32.6401C17.9826 32.6535 20.3242 32.6644 23.1862 32.6644H28.3898L28.6393 32.5401C28.9216 32.3994 29.1473 32.1144 29.2521 31.7659C29.3062 31.5861 29.3173 29.9422 29.3173 22.1097C29.3173 11.6837 29.3419 12.4948 29.016 12.1548C28.9319 12.067 28.7785 11.9517 28.6752 11.8985C28.4897 11.8029 28.4115 11.8017 21.8122 11.7951C18.1408 11.7914 14.8984 11.7991 14.6069 11.8123ZM9.01152 16.7411C8.6897 16.8649 8.42212 17.1011 8.24841 17.4147L8.10646 17.671V24.6058V31.5405L8.20867 31.7616C8.3554 32.0789 8.62389 32.3544 8.93572 32.5075L9.20646 32.6405L12.812 32.6539C16.0147 32.6659 16.4473 32.6587 16.6832 32.5902C17.1534 32.4534 17.4614 32.1739 17.6814 31.684C17.7628 31.5028 17.7673 31.1304 17.7673 24.6297V17.7666L17.616 17.4472C17.5019 17.2063 17.4079 17.086 17.2334 16.9573C16.7935 16.6328 16.9272 16.6424 12.8923 16.6452C9.40164 16.6476 9.24444 16.6515 9.01152 16.7411ZM9.57692 23.709L9.58907 29.2927L12.9249 29.305C14.7597 29.3117 16.262 29.301 16.2633 29.2811C16.2668 29.2322 16.2669 18.8561 16.2635 18.4481L16.2608 18.1253H12.9128H9.56478L9.57692 23.709ZM30.1865 29.9056C30.0858 30.0128 30.0826 30.0518 30.0826 31.149V32.2818H31.7565H33.4304V32.0677C33.4304 31.7935 33.3851 31.7641 32.6173 31.5399C31.6515 31.2579 31.318 31.0922 31.0238 30.7485C30.9287 30.6375 30.816 30.4414 30.7733 30.3127C30.6831 30.0412 30.493 29.7949 30.3736 29.7949C30.3279 29.7949 30.2437 29.8447 30.1865 29.9056ZM12.5447 30.3669C12.1297 30.6199 12.147 31.3176 12.5737 31.5382C13.0074 31.7624 13.4866 31.4499 13.4866 30.9427C13.4866 30.4198 12.9729 30.1058 12.5447 30.3669ZM21.1113 30.3633C21.0303 30.4127 20.9281 30.5289 20.8842 30.6215C20.6557 31.103 20.9527 31.6117 21.4626 31.6121C21.6283 31.6122 21.7001 31.5816 21.8452 31.4486C22.0196 31.2887 22.0239 31.2767 22.0239 30.9427C22.0239 30.6087 22.0196 30.5967 21.8452 30.4369C21.7001 30.3038 21.6283 30.2732 21.4626 30.2733C21.3475 30.2734 21.1945 30.3126 21.1113 30.3633Z" fill="white"/>
</g>
</svg>
