<svg width="43" height="43" viewBox="0 0 43 43" fill="none" xmlns="http://www.w3.org/2000/svg">
<g id="Traced Image">
<path id="Vector" fillRule="evenodd" clipRule="evenodd" d="M32.3062 5.57074C30.4369 6.52916 30.3255 6.60065 30.1385 6.96215C29.8864 7.4499 29.9896 7.71864 32.0753 12.0012C33.1645 14.2374 34.1153 16.1703 34.1882 16.2966C34.3358 16.552 34.865 16.8274 35.2132 16.8301C35.4686 16.8321 38.8124 15.1607 39.1205 14.8771C39.3553 14.6609 39.5355 14.2605 39.5351 13.9562C39.5348 13.7214 35.5199 5.31206 35.2824 5.04878C35.0686 4.81167 34.7391 4.67456 34.3834 4.67456C34.1225 4.67456 33.6914 4.86054 32.3062 5.57074ZM21.4908 7.07004C21.2418 7.19169 18.8439 8.63173 16.1621 10.2702L11.286 13.2491L14.984 13.27L18.682 13.291L19.6284 12.8174C21.3949 11.9334 22.3161 11.7097 23.2168 11.9462C23.7587 12.0885 25.7858 13.213 25.9672 13.472C26.1514 13.735 26.1231 14.2091 25.9087 14.4507C25.7782 14.5979 25.0183 14.9279 23.1914 15.6307C21.7966 16.1673 20.5361 16.6791 20.3903 16.768C19.9739 17.022 19.6506 17.6596 19.6496 18.2287C19.648 19.2732 20.1955 19.7137 21.3062 19.5615C21.5682 19.5256 23.2679 19.2938 25.0835 19.0464C26.899 18.799 28.4932 18.5615 28.626 18.5185C28.9437 18.4161 32.7189 16.1669 32.7156 16.082C32.7143 16.0459 31.941 14.4268 30.9973 12.484C29.2982 8.98566 29.2795 8.95193 29.0626 8.99525C28.6631 9.07519 28.0103 8.86473 25.5161 7.85189C23.1862 6.90587 23.0132 6.84839 22.4941 6.84863C22.0575 6.84887 21.8498 6.89468 21.4908 7.07004ZM7.27089 14.4733C7.17162 14.4924 7.03579 14.5861 6.96897 14.6815C6.82759 14.8833 6.80328 15.5437 6.93717 15.5437C7.27049 15.5437 8.20878 14.6804 8.08793 14.4849C8.04518 14.4157 7.60204 14.4094 7.27089 14.4733ZM9.28643 14.7386C9.06704 15.2892 8.89595 15.5603 8.53823 15.9247C8.16554 16.3044 7.34947 16.7512 7.02863 16.7513L6.84748 16.7514V18.9252V21.099L7.02863 21.0998C7.34142 21.1012 8.03648 21.4778 8.46851 21.8798C8.847 22.2322 9.34311 23.0565 9.34327 23.3333C9.34335 23.4128 10.4928 23.4339 14.8223 23.4339H20.3012L20.422 23.132C20.6498 22.5622 20.8169 22.2967 21.1786 21.9297C21.5286 21.5745 22.3657 21.0992 22.6414 21.0991C22.9141 21.099 23.0304 21.0001 23.0304 20.7684C23.0304 20.4946 23.1005 20.5017 22.0063 20.665C20.5283 20.8856 19.7767 20.7383 19.1421 20.1037C18.0333 18.9949 18.3089 16.7428 19.6652 15.8295C19.8828 15.6829 20.6656 15.3323 21.4047 15.0502C22.6781 14.5642 22.7296 14.5363 22.3863 14.5189C22.1871 14.5089 19.1833 14.4908 15.7114 14.4787L9.39883 14.4568L9.28643 14.7386ZM13.8598 16.1434C13.2955 16.3268 12.6769 16.8032 12.3316 17.3202C11.3471 18.7945 11.9098 20.8164 13.5142 21.5684C13.9103 21.7541 14.077 21.7834 14.7377 21.7834C15.406 21.7834 15.5585 21.7559 15.9459 21.5656C16.5478 21.27 17.0453 20.7608 17.3456 20.1329C17.5662 19.6716 17.5955 19.5286 17.5928 18.9252C17.5902 18.3491 17.5537 18.1616 17.3614 17.7399C17.0905 17.1455 16.4571 16.5074 15.8883 16.2558C15.3934 16.037 14.3629 15.9798 13.8598 16.1434ZM14.0837 17.0335C13.6578 17.17 13.1451 17.6297 12.9426 18.0566C12.5803 18.8201 12.7265 19.7102 13.3133 20.3141C14.4444 21.4778 16.3135 20.9118 16.6751 19.2961C16.7547 18.9403 16.7485 18.7985 16.6362 18.4123C16.3154 17.3086 15.1645 16.687 14.0837 17.0335ZM7.98052 18.5738C7.76934 18.8422 7.76837 19.0878 7.97779 19.3126C8.12633 19.4721 8.22158 19.4888 8.97831 19.4888C9.78601 19.4888 9.82047 19.4816 9.98157 19.2766C10.1921 19.009 10.1921 18.8414 9.98157 18.5738C9.82055 18.369 9.78577 18.3616 8.98105 18.3616C8.17633 18.3616 8.14155 18.369 7.98052 18.5738ZM22.4777 22.4367C22.1678 22.5914 21.9791 22.7572 21.8101 23.023L21.5744 23.3936L21.9182 23.4193C22.4172 23.4565 22.7747 23.3693 22.8725 23.1865C22.9196 23.0985 22.9472 22.8453 22.9339 22.6238L22.9097 22.221L22.4777 22.4367ZM6.84748 22.6968C6.84748 23.2055 7.02034 23.368 7.61355 23.4172C8.11715 23.459 8.1504 23.4058 7.88713 22.9797C7.72812 22.7225 7.14368 22.3067 6.94103 22.3067C6.88282 22.3067 6.84748 22.4541 6.84748 22.6968ZM10.6675 25.1521C10.0924 25.3411 9.36332 25.7755 8.86624 26.2253L8.38268 26.663L8.70119 27.3229C9.04739 28.0401 11.3906 34.4732 11.5631 35.1801C11.6214 35.4189 11.6983 35.6421 11.734 35.6761C11.9176 35.8509 16.4359 37.6761 16.8035 37.724C17.6979 37.8406 18.5217 37.458 20.3703 36.0675C22.5587 34.4215 24.1958 32.6475 25.5565 30.4476C26.4185 29.0541 26.6056 28.6154 26.6078 27.9828C26.6107 27.1265 26.2061 26.3647 25.5728 26.034C25.2517 25.8665 24.6508 25.8794 24.2966 26.0614C24.1348 26.1446 23.5169 26.7505 22.912 27.4192C22.0544 28.3672 21.8301 28.6615 21.8692 28.7879C22.1179 29.5928 22.172 30.0602 22.0725 30.5448C21.8859 31.4539 21.3787 32.1422 20.6043 32.5372C20.043 32.8236 19.5387 32.8125 17.7655 32.4746C16.3158 32.1984 16.1491 32.1498 16.0094 31.9625C15.8771 31.7851 15.8692 31.7246 15.9543 31.5379C16.0088 31.4182 16.1296 31.3011 16.2226 31.2778C16.3157 31.2544 17.0712 31.3639 17.9016 31.5213C18.732 31.6785 19.5204 31.8072 19.6535 31.8072C21.0414 31.8072 21.6508 29.6849 20.5601 28.6495C20.3928 28.4905 19.8878 28.2836 18.7211 27.8957C16.0509 27.0081 15.2757 26.6768 14.2608 25.9896C13.2271 25.2898 12.7299 25.1045 11.799 25.0726C11.2743 25.0545 10.8802 25.0822 10.6675 25.1521ZM5.17387 27.2548C4.31118 27.6873 4.05878 27.8538 3.86973 28.1147C3.54422 28.5641 3.43706 28.9375 3.49406 29.4235C3.54954 29.8955 6.27592 37.4444 6.50441 37.7585C6.71898 38.0534 7.3002 38.3286 7.70863 38.3286C7.96982 38.3286 8.26135 38.2199 8.91938 37.8767C9.39609 37.6282 9.90782 37.3335 10.0565 37.2219C10.3916 36.9704 10.7102 36.3063 10.7113 35.8569C10.7118 35.6191 10.2841 34.3376 9.2692 31.5363C8.47567 29.3459 7.7654 27.4608 7.69092 27.347C7.49367 27.0461 7.07508 26.8156 6.63162 26.7639C6.27254 26.7219 6.16401 26.7585 5.17387 27.2548Z" fill="white"/>
</g>
</svg>
