<svg width="14" height="14" viewBox="0 0 14 14" fill="none" xmlns="http://www.w3.org/2000/svg">
<g id="Frame">
<g id="Group">
<path id="Vector" d="M11.499 6.62035C11.499 6.47114 11.4422 6.33112 11.3336 6.22191L8.40124 3.29014C8.3551 3.24398 8.30032 3.20736 8.24003 3.18237C8.17973 3.15739 8.1151 3.14453 8.04984 3.14453C7.98457 3.14453 7.91995 3.15739 7.85965 3.18237C7.79936 3.20736 7.74457 3.24398 7.69844 3.29014L7.52328 3.46584C7.47711 3.51198 7.44049 3.56676 7.41551 3.62706C7.39053 3.68735 7.37767 3.75198 7.37767 3.81724C7.37767 3.88251 7.39053 3.94714 7.41551 4.00743C7.44049 4.06773 7.47711 4.12251 7.52328 4.16864L9.35813 6.00404H2.80584C2.74055 6.00397 2.67589 6.01677 2.61555 6.04171C2.55521 6.06664 2.50037 6.10323 2.45418 6.14937C2.40799 6.19551 2.37134 6.25031 2.34634 6.31062C2.32134 6.37093 2.30847 6.43558 2.30847 6.50087V6.74956C2.30847 7.02365 2.53067 7.24584 2.80584 7.24584H9.35813L7.52328 9.0807C7.47711 9.12684 7.44049 9.18162 7.41551 9.24192C7.39053 9.30221 7.37767 9.36684 7.37767 9.43211C7.37767 9.49737 7.39053 9.562 7.41551 9.62229C7.44049 9.68259 7.47711 9.73737 7.52328 9.78351L7.69898 9.95921C7.89306 10.1533 8.20716 10.1533 8.40178 9.95921L11.3336 7.02798C11.4438 6.91715 11.499 6.7701 11.499 6.62035Z" fill="#161618"/>
</g>
</g>
</svg>
