<svg width="50" height="50" viewBox="0 0 50 50" fill="none" xmlns="http://www.w3.org/2000/svg">
<g id="Traced Image">
<path id="Vector" fillRule="evenodd" clipRule="evenodd" d="M17.0522 7.11383C16.3647 7.2787 15.722 7.79054 15.3736 8.45059L15.1553 8.86424L15.1309 11.6216C15.1174 13.1382 15.0812 14.3789 15.0505 14.3789C15.0197 14.3789 14.4108 14.117 13.6972 13.7968C12.5432 13.279 12.3445 13.2147 11.8986 13.215C11.3129 13.2153 10.9317 13.3559 10.5081 13.7278C10.0218 14.1548 9.84872 14.5615 9.84839 15.2776C9.84806 15.9661 9.96906 16.2744 10.4273 16.7532C10.6446 16.9803 11.1892 17.2583 12.9081 18.0195C14.5018 18.7253 15.1111 19.0324 15.1125 19.1303C15.1142 19.2463 15.0353 19.2319 14.563 19.0304C13.3124 18.4969 12.324 18.858 11.7532 20.057C11.3452 20.914 11.4767 21.767 12.1096 22.3686C12.2851 22.5354 12.9018 22.8661 13.7331 23.239C14.5194 23.5918 15.0842 23.8922 15.099 23.9656C15.1186 24.0616 14.9577 24.0229 14.4111 23.8001C13.8075 23.554 13.6325 23.516 13.2728 23.5531C12.4366 23.6395 11.8387 24.1302 11.51 24.9999C11.1856 25.8579 11.469 26.8753 12.1574 27.3249C12.6363 27.6376 14.3401 28.3473 14.7454 28.4029C15.1002 28.4515 15.1145 28.4641 15.1145 28.7294V29.0053L14.8081 28.8749C13.5438 28.3365 13.1195 28.2977 12.4133 28.6559C11.2317 29.2552 11.0343 30.822 12.0231 31.7512C12.3972 32.1026 14.1396 32.8613 14.6789 32.9076L15.101 32.9438L15.1282 34.3027C15.1592 35.8547 15.2453 36.1394 15.8754 36.7727C16.56 37.4608 16.5299 37.4558 20.1303 37.4831L23.3078 37.5071L23.6215 37.7757C24.0503 38.1427 25.0238 38.6048 25.792 38.806C26.4308 38.9734 27.9225 39.1233 28.751 39.1035L29.1931 39.093L30.241 40.6044C31.4475 42.3448 31.7495 42.6643 32.3583 42.8451C32.9017 43.0066 33.1111 43.0063 33.6658 42.8435C34.087 42.7199 34.2548 42.5687 36.955 39.8819C38.5297 38.315 39.8791 36.9046 39.9765 36.7237C40.1147 36.4671 40.1526 36.2566 40.1528 35.7433C40.1531 34.8925 40.0508 34.7048 39.0805 33.7772L38.3059 33.0367L38.4695 32.3883C38.9527 30.4739 38.9108 28.4004 38.3531 26.6335C38.2327 26.2517 37.9398 25.5518 37.7024 25.078C37.4649 24.6044 37.099 23.7829 36.8894 23.2529C36.3423 21.8697 36.0512 21.4044 33.5094 17.8512C32.6105 16.5945 32.4035 15.9242 32.492 14.557L32.5392 13.8294L32.2508 13.5148C31.9843 13.224 31.9292 13.2003 31.5246 13.2018C31.2838 13.2028 30.9887 13.2289 30.8691 13.26L30.6514 13.3164L30.624 11.1721C30.5969 9.06228 30.5931 9.02036 30.3849 8.57829C30.0784 7.92731 29.7985 7.6376 29.184 7.33499L28.6394 7.06685L23.0003 7.05329C19.8535 7.04569 17.2246 7.07249 17.0522 7.11383ZM17.3204 7.83613C16.674 7.97028 16.0944 8.4769 15.9364 9.04585C15.8808 9.24602 15.8505 11.1539 15.8503 14.4751L15.8498 19.5957L16.3195 19.8106C17.2078 20.2169 17.6004 20.7807 17.6002 21.6502C17.6 22.5927 16.9646 23.548 16.1816 23.7825C15.8849 23.8714 15.8498 23.9092 15.8498 24.1392C15.8498 24.3451 15.9153 24.4447 16.1771 24.637C17.1721 25.3676 17.1783 26.9887 16.1896 27.8795L15.8498 28.1857V28.7892C15.8498 29.3424 15.8668 29.4039 16.0534 29.5262C16.3952 29.7502 16.6941 30.4396 16.6946 31.0048C16.6951 31.566 16.5462 31.918 16.1198 32.3633L15.836 32.6597L15.8633 34.079C15.8899 35.4602 15.8968 35.5086 16.1175 35.8841C16.2646 36.1343 16.48 36.3498 16.7303 36.4968L17.1161 36.7237L23.4815 36.7461C29.0113 36.7655 29.9035 36.752 30.2788 36.6429C30.5164 36.5738 30.728 36.4893 30.7492 36.4551C30.7704 36.4209 30.6432 36.0996 30.4668 35.7413C29.7788 34.3447 29.4358 32.511 29.5273 30.7188C29.5874 29.5433 29.7539 28.6455 30.1782 27.2106C30.5947 25.8017 30.7459 24.8115 30.6901 23.8561C30.6241 22.7262 30.399 22.1097 29.6867 21.1091C29.2619 20.5123 28.9754 19.9072 28.8018 19.2401C28.6261 18.5649 28.5485 16.5399 28.6689 15.7736C28.7801 15.0664 29.1411 14.3267 29.5508 13.967L29.8273 13.7242L29.8035 11.3225L29.7795 8.92085L29.5228 8.56571C29.3736 8.35925 29.101 8.12518 28.8716 8.00639L28.4769 7.80215L23.0416 7.78948C20.0522 7.78254 17.4776 7.80353 17.3204 7.83613ZM20.7681 8.92143C20.7142 8.97535 20.67 9.09667 20.67 9.19103C20.67 9.54299 20.7647 9.55868 22.8894 9.55868C24.8062 9.55868 24.9171 9.55035 24.9972 9.40067C25.1121 9.18597 25.1039 9.10231 24.9535 8.95174C24.8437 8.8421 24.5361 8.82339 22.8456 8.82339C21.4149 8.82339 20.8389 8.85059 20.7681 8.92143ZM25.8334 8.92143C25.7795 8.97535 25.7354 9.09667 25.7354 9.19103C25.7354 9.54994 26.2223 9.7068 26.3861 9.40067C26.501 9.18597 26.4928 9.10231 26.3423 8.95174C26.1894 8.79888 25.9691 8.78572 25.8334 8.92143ZM11.1929 14.1472C10.782 14.4219 10.5057 15.0142 10.5746 15.4734C10.6743 16.1381 10.9315 16.3241 13.072 17.2797C14.128 17.751 15.0204 18.1368 15.0551 18.1369C15.0898 18.137 15.1082 17.4857 15.0959 16.6896L15.0736 15.242L13.7256 14.6314C12.1426 13.9144 11.6748 13.825 11.1929 14.1472ZM30.5779 14.1781C30.0958 14.4193 29.713 14.8532 29.5334 15.3622C29.3627 15.8461 29.3629 18.4051 29.5338 19.0609C29.6849 19.6414 29.9805 20.2332 30.4444 20.8846C31.7105 22.6624 31.7833 24.5753 30.7191 28.1044C30.5905 28.5313 30.4387 29.1563 30.3818 29.4933C30.2389 30.341 30.2601 32.2285 30.4227 33.1352C30.631 34.2963 31.0924 35.5356 31.4941 36.0129C31.9099 36.5073 31.7691 36.7883 30.8825 37.2334L30.4331 37.459L27.4919 37.4999L24.5508 37.5407L25.1635 37.7996C26.1009 38.1957 26.9599 38.331 28.3498 38.3014L29.5344 38.2762L30.7312 39.9889C31.3895 40.9309 32.0243 41.7844 32.1419 41.8856C32.4602 42.1593 32.9338 42.2639 33.3539 42.1533C33.6564 42.0736 34.0518 41.7127 36.4236 39.3519C37.921 37.8615 39.2169 36.5056 39.3035 36.3389C39.6713 35.6305 39.4641 35.1476 38.3463 34.1081C37.3727 33.2028 37.4156 33.3377 37.7367 32.1894C38.0151 31.1941 38.1208 29.8355 38.0057 28.732C37.8772 27.4995 37.5968 26.5575 37.016 25.4084C36.7548 24.8916 36.4478 24.2115 36.3337 23.8969C35.8082 22.4482 35.5629 22.032 33.6731 19.383C32.7954 18.1526 32.1355 17.1439 32.038 16.8834C31.7937 16.2305 31.6831 15.4901 31.7133 14.7097L31.7403 14.0113L31.3727 13.9878C31.1052 13.9709 30.8886 14.0227 30.5779 14.1781ZM17.8923 18.3005V19.9345H18.2578H18.6233L18.6459 18.6886L18.6684 17.4427L19.9143 17.4201L21.1602 17.3976V17.032V16.6665H19.5262H17.8923V18.3005ZM24.9184 17.0342V17.4018H26.1847H27.4511V18.6682V19.9345H27.8187H28.1864V18.3005V16.6665H26.5524H24.9184V17.0342ZM19.8714 19.9549L19.8939 21.2825H21.2011H22.5083L22.5307 19.9549L22.5532 18.6273H21.2011H19.849L19.8714 19.9549ZM23.6929 19.9753V21.3234H25.0001H26.3073V19.9753V18.6273H25.0001H23.6929V19.9753ZM20.5883 19.9345V20.5064H21.1602H21.7321V19.9345V19.3626H21.1602H20.5883V19.9345ZM24.4282 19.9345V20.5064H25.0001H25.572V19.9345V19.3626H25.0001H24.4282V19.9345ZM13.0239 19.6805C12.6734 19.8942 12.4599 20.1889 12.3367 20.6291C12.2072 21.0915 12.3237 21.5682 12.6323 21.8386C12.9218 22.0922 15.2691 23.1176 15.5638 23.1192C16.6099 23.1249 17.3001 21.5433 16.5564 20.8446C16.2613 20.5674 13.899 19.5281 13.5622 19.5273C13.4049 19.5269 13.1627 19.5959 13.0239 19.6805ZM23.6112 22.9165V23.3659H24.0606H24.5099V22.9165V22.4672H24.0606H23.6112V22.9165ZM25.4903 22.9165V23.3659H25.9396H26.389V22.9165V22.4672H25.9396H25.4903V22.9165ZM19.853 23.8561V25.1633H21.2011H22.5491V23.8561V22.5489H21.2011H19.853V23.8561ZM20.5883 23.8561V24.428H21.1602H21.7321V23.8561V23.2842H21.1602H20.5883V23.8561ZM24.5261 23.8765L24.5508 24.3054H25.0001H25.4495L25.4741 23.8765L25.4989 23.4476H25.0001H24.5013L24.5261 23.8765ZM17.8923 25.4901V27.124H19.5262H21.1602V26.7564V26.3887H19.8939H18.6276V25.1224V23.8561H18.2599H17.8923V25.4901ZM27.4511 25.1224V26.3887H26.1847H24.9184V26.7564V27.124H26.5524H28.1864V25.4901V23.8561H27.8187H27.4511V25.1224ZM13.0922 24.3222C12.5969 24.4176 12.0193 25.3671 12.123 25.9155C12.2333 26.4992 12.4133 26.6571 13.5317 27.1508C14.1102 27.4062 14.657 27.6208 14.7468 27.6276C15.3391 27.6729 15.7281 27.4377 16.0257 26.8544C16.1556 26.5999 16.1859 26.4203 16.1572 26.0751C16.1255 25.6928 16.0789 25.5889 15.8419 25.3721C15.549 25.104 13.6816 24.2566 13.4258 24.2757C13.3435 24.2818 13.1934 24.3028 13.0922 24.3222ZM23.6112 24.7867C23.6112 25.2231 23.6137 25.2273 23.8767 25.2565C24.4535 25.3202 24.5099 25.2787 24.5099 24.7899V24.3463H24.0606H23.6112V24.7867ZM25.5066 24.8133C25.5308 25.2742 25.5343 25.2802 25.7762 25.2726C26.4327 25.2519 26.389 25.286 26.389 24.7956V24.3463H25.9356H25.4821L25.5066 24.8133ZM12.7439 29.3187C12.3055 29.5532 12.1379 29.9171 12.1642 30.5771C12.1795 30.9576 12.6224 31.328 13.5622 31.7459C14.5785 32.1977 14.8865 32.2526 15.2762 32.0507C16.1178 31.6149 16.1552 30.342 15.3378 29.9587C13.4798 29.0871 13.2726 29.0361 12.7439 29.3187Z" fill="white"/>
</g>
</svg>
