<svg width="37" height="36" viewBox="0 0 37 36" fill="none" xmlns="http://www.w3.org/2000/svg">
<path d="M27.1567 28.3075H26.0258C24.8353 28.3075 23.7044 28.7688 22.8711 29.6021L20.3265 32.117C19.1659 33.2628 17.276 33.2628 16.1154 32.117L13.5708 29.6021C12.7375 28.7688 11.5917 28.3075 10.4161 28.3075H9.30009C6.82993 28.3075 4.83594 26.3284 4.83594 23.888V7.65335C4.83594 5.21295 6.82993 3.23389 9.30009 3.23389H27.1567C29.6269 3.23389 31.6208 5.21295 31.6208 7.65335V23.888C31.6208 26.3136 29.6269 28.3075 27.1567 28.3075Z" stroke="black" stroke-width="2.18215" stroke-miterlimit="10" stroke-linecap="round" stroke-linejoin="round"/>
<path d="M10.7891 13.8738C10.7891 12.4899 11.92 11.3589 13.3039 11.3589C14.6878 11.3589 15.8187 12.4899 15.8187 13.8738C15.8187 16.6713 11.8456 16.9689 10.9676 19.6325C10.7891 20.1831 11.2504 20.7337 11.8307 20.7337H15.8187" stroke="black" stroke-width="2.18215" stroke-linecap="round" stroke-linejoin="round"/>
<path d="M24.2394 20.7184V12.2217C24.2394 11.8348 23.9865 11.4925 23.6144 11.3883C23.2424 11.2842 22.8407 11.433 22.6324 11.7603C21.561 13.4865 20.4003 15.4507 19.3884 17.1769C19.2247 17.4596 19.2247 17.8316 19.3884 18.1143C19.5521 18.3971 19.8646 18.5755 20.2068 18.5755H25.668" stroke="black" stroke-width="2.18215" stroke-linecap="round" stroke-linejoin="round"/>
</svg>
