<svg width="32" height="32" viewBox="0 0 32 32" fill="none" xmlns="http://www.w3.org/2000/svg">
<g id="Traced Image" clip-path="url(#clip0_3011_6107)">
<path id="Vector" fillRule="evenodd" clipRule="evenodd" d="M14.5625 0.131183C14.0944 0.343058 13.6875 0.835558 13.6875 1.19037C13.6875 1.28637 13.6579 1.31331 13.5781 1.28993C13.0679 1.14006 12.6469 1.20656 12.2121 1.50575C11.8898 1.72743 11.625 2.22225 11.625 2.60262V2.86706L11.2969 2.8335C10.85 2.78768 10.4799 2.90075 10.1742 3.17637C9.70563 3.59881 9.69044 3.676 9.68888 5.64175C9.68756 7.29374 9.69344 7.38206 9.8125 7.50112C9.98088 7.66949 10.3193 7.66624 10.4747 7.49468C10.5845 7.37343 10.5952 7.23281 10.6123 5.68443L10.6307 4.00568L10.7926 3.87843C11.0146 3.70375 11.2581 3.71643 11.4423 3.91231L11.5938 4.07349L11.625 6.34031C11.6497 8.13431 11.6741 8.62868 11.742 8.71037C11.8682 8.86231 12.2642 8.84562 12.4122 8.68212C12.5253 8.55712 12.5321 8.39874 12.5486 5.49874L12.5659 2.44687L12.7631 2.28093C12.9928 2.08762 13.2448 2.10325 13.4814 2.3255L13.625 2.46043V5.19606V7.93162L13.7714 8.10181C13.9431 8.30149 14.2581 8.33224 14.4249 8.16562C14.5216 8.06887 14.5341 7.75181 14.5625 4.64974L14.5938 1.24018L14.7691 1.08943C15.0116 0.880871 15.2758 0.892308 15.5048 1.12131L15.6875 1.304V4.62543C15.6875 6.63218 15.7113 7.99131 15.7476 8.05918C15.7807 8.12093 15.8903 8.20568 15.9912 8.24749C16.1421 8.30999 16.2077 8.30637 16.361 8.22712C16.4635 8.17412 16.5648 8.08525 16.5862 8.02956C16.6075 7.97393 16.625 6.73324 16.625 5.27243V2.6165L16.8077 2.43381C17.0001 2.2415 17.14 2.21237 17.3992 2.31093C17.7215 2.4335 17.75 2.60056 17.75 4.36849V5.99206L17.9147 6.12156C18.1026 6.26937 18.1822 6.27931 18.3964 6.18174C18.6635 6.06006 18.6875 5.90149 18.6875 4.2595C18.6875 2.52731 18.6394 2.22668 18.3001 1.84031C17.9459 1.43693 17.3344 1.23268 16.867 1.36175L16.6447 1.42312L16.5632 1.10512C16.501 0.862621 16.4059 0.711871 16.1627 0.470121C15.6843 -0.00531676 15.1256 -0.123692 14.5625 0.131183ZM20.7927 5.21668C20.4321 5.34531 20.3301 5.46918 19.9327 6.26131C19.5205 7.08293 19.6468 6.99968 18.5723 7.15787C18.2167 7.21018 17.876 7.27962 17.8152 7.31218C17.6066 7.42381 17.3186 7.81106 17.2763 8.03706C17.1968 8.46093 17.3386 8.73099 17.9886 9.39293L18.5882 10.0034L18.4544 10.8111C18.2997 11.7443 18.3295 11.9681 18.6508 12.2894C18.8753 12.5139 19.2813 12.6502 19.5446 12.5894C19.6404 12.5674 20.0364 12.3843 20.4247 12.1827L21.1306 11.8161L21.8309 12.1828C22.2161 12.3844 22.6096 12.5675 22.7054 12.5896C22.9688 12.6502 23.3747 12.5139 23.5992 12.2894C23.9208 11.9678 23.9511 11.7414 23.7975 10.808L23.6646 10.0006L24.2628 9.39149C24.9125 8.72987 25.0533 8.46099 24.9733 8.03468C24.9162 7.73031 24.5501 7.33124 24.2589 7.25599C24.1337 7.22362 23.8062 7.16593 23.5312 7.12781C22.6244 7.00193 22.7248 7.07362 22.3173 6.26131C22.1162 5.86037 21.8941 5.48049 21.8237 5.41706C21.6901 5.29656 21.2862 5.13162 21.125 5.13162C21.0734 5.13162 20.9239 5.16987 20.7927 5.21668ZM20.7138 6.76674C20.1896 7.83068 20.1362 7.87081 19.0312 8.03243C18.6187 8.09274 18.2537 8.16743 18.2201 8.19837C18.1819 8.23356 18.3771 8.47124 18.7425 8.83418C19.0634 9.15293 19.3642 9.48262 19.4108 9.56681C19.526 9.77487 19.5164 10.227 19.3815 10.9499C19.3194 11.2827 19.2885 11.5873 19.3129 11.6267C19.3431 11.6756 19.5939 11.5731 20.0971 11.3066C21.0831 10.7842 21.1632 10.7841 22.1533 11.3041C22.5612 11.5184 22.9166 11.6714 22.9431 11.6442C22.9696 11.6171 22.9374 11.2996 22.8716 10.9386C22.735 10.1888 22.7198 9.80231 22.8194 9.60637C22.8575 9.53131 23.1589 9.19612 23.4891 8.8615C23.8691 8.47637 24.0673 8.23162 24.0291 8.19462C23.9959 8.16249 23.6453 8.09018 23.25 8.03393C22.8547 7.97768 22.4819 7.91724 22.4216 7.89956C22.1582 7.82256 21.9114 7.50974 21.5581 6.80468C21.3537 6.39712 21.1581 6.06362 21.1234 6.06362C21.0887 6.06362 20.9044 6.38006 20.7138 6.76674ZM9.82337 9.08324C9.69162 9.22349 9.6875 9.27368 9.68794 10.7239C9.68844 12.5261 9.75831 12.907 10.2864 13.987C10.9257 15.2947 10.9553 15.5952 10.7548 18.7507C10.655 20.3196 10.6502 20.6187 10.7227 20.7588C10.8676 21.0391 11.1508 21.0812 11.4051 20.8605L11.5671 20.7199L11.6889 18.7824C11.756 17.7167 11.8112 16.5872 11.8117 16.2722C11.8131 15.3261 11.6095 14.5235 11.1248 13.5631C10.6787 12.6794 10.6692 12.6274 10.6298 10.8236C10.594 9.18893 10.5927 9.17649 10.4462 9.05799C10.2464 8.89631 9.98925 8.90674 9.82337 9.08324ZM19.3363 13.5554C19.1685 13.6884 18.8789 13.8741 18.6927 13.9681C18.2619 14.1854 17.7551 14.6633 17.5436 15.052C17.3349 15.4354 17.1742 16.0436 17.2226 16.2667C17.2651 16.4626 17.4649 16.6261 17.6618 16.6261C17.8368 16.6261 18.125 16.3971 18.125 16.2579C18.125 15.9962 18.3274 15.5062 18.5364 15.262C18.6647 15.1122 18.9688 14.8843 19.2366 14.7373C19.8375 14.4075 20.25 14.022 20.25 13.7902C20.25 13.5787 19.9954 13.3136 19.7922 13.3136C19.7092 13.3136 19.5041 13.4224 19.3363 13.5554ZM4.28981 13.9677C3.97394 14.0803 3.7035 14.3399 3.539 14.6886L3.40625 14.9699L3.03038 14.9516C2.73187 14.9372 2.59681 14.9639 2.37413 15.0814C2.01631 15.2704 1.74606 15.6497 1.70413 16.022L1.672 16.307L1.30325 16.3052C0.715187 16.3024 0.260688 16.6262 0.0720625 17.1823C0.021125 17.3326 0 18.3994 0 20.8256C0 24.7911 0.000437498 24.7952 0.531687 25.9386C0.715312 26.3339 0.8945 26.7662 0.929812 26.8991C1.01838 27.2326 1.16463 27.3761 1.41594 27.3761C1.66169 27.3761 1.875 27.1926 1.875 26.9812C1.875 26.7401 1.68938 26.1829 1.45487 25.7199C0.939625 24.7027 0.97375 25.0203 0.951688 21.0324C0.930188 17.1552 0.923375 17.2355 1.27606 17.2355C1.65144 17.2355 1.65456 17.2526 1.67344 19.3939C1.69006 21.2843 1.69469 21.3482 1.821 21.4542C1.99481 21.6001 2.28331 21.5928 2.4375 21.4386C2.55831 21.3178 2.5625 21.2303 2.5625 18.8229C2.5625 17.1729 2.58569 16.2657 2.63125 16.1351C2.70569 15.9215 2.89444 15.8361 3.15 15.9002C3.41494 15.9667 3.4375 16.1785 3.4375 18.5997V20.8671L3.60219 20.9966C3.8095 21.1597 3.94006 21.16 4.146 20.998L4.30894 20.8699L4.32631 17.9732C4.34288 15.226 4.34987 15.0699 4.46281 14.9451C4.60775 14.785 4.81644 14.7763 4.99225 14.923C5.12144 15.0308 5.12356 15.0741 5.13975 17.9284L5.15625 20.8246L5.33162 20.9753C5.54594 21.1596 5.68344 21.1652 5.89563 20.9983L6.05819 20.8704L6.07594 18.5239L6.09375 16.1775L6.24131 16.0581C6.428 15.9069 6.572 15.9069 6.75869 16.0581L6.90625 16.1775L6.9375 19.861C6.9715 23.8692 6.95069 23.6577 7.33119 23.8545C7.61906 24.0034 7.86525 23.9144 8.50619 23.4296C9.20256 22.903 9.88394 22.5636 10.2449 22.5636C10.4356 22.5636 10.5478 22.6081 10.6997 22.7438L10.9013 22.924L10.4038 23.1757C9.79537 23.4836 9.58194 23.7022 8.97956 24.6349C8.49438 25.3861 8.33488 25.544 7.7505 25.8516C7.06838 26.2108 6.5535 26.9336 6.46931 27.6504C6.44869 27.8261 6.47412 28.8136 6.52581 29.8449L6.61981 31.7199L6.78212 31.8605C7.03687 32.0812 7.32062 32.039 7.46356 31.7592C7.53387 31.6215 7.533 31.2891 7.45819 29.7067C7.39175 28.3021 7.3865 27.753 7.43781 27.5626C7.53081 27.2171 7.87256 26.8551 8.33575 26.6112C8.84862 26.3412 9.32987 25.8449 9.77612 25.1261C10.2796 24.3149 10.385 24.213 11.0331 23.91C11.6292 23.6313 11.7954 23.4672 11.8553 23.0985C11.8977 22.8369 11.7143 22.4126 11.4404 22.1386C10.6941 21.3923 9.56631 21.4893 8.31956 22.4071C8.10925 22.5619 7.90913 22.6886 7.87481 22.6886C7.83419 22.6886 7.8125 21.5252 7.8125 19.3424C7.8125 16.1533 7.80681 15.985 7.69119 15.7583C7.43087 15.2481 6.87669 14.9496 6.32875 15.0247C6.11613 15.0539 6.0625 15.0421 6.0625 14.9662C6.0625 14.7932 5.82325 14.3985 5.59912 14.2017C5.24125 13.8875 4.75731 13.801 4.28981 13.9677ZM24.4148 13.9677C24.0989 14.0803 23.8285 14.3399 23.664 14.6886L23.5312 14.9699L23.1554 14.9516C22.8569 14.9372 22.7218 14.9639 22.4991 15.0814C22.1413 15.2704 21.8711 15.6497 21.8291 16.022L21.797 16.307L21.4282 16.3052C20.8402 16.3024 20.3857 16.6262 20.1971 17.1823C20.1461 17.3326 20.125 18.3994 20.125 20.8256C20.125 24.7919 20.1254 24.7956 20.657 25.9386C20.8409 26.3339 21.0206 26.7699 21.0563 26.9074C21.1841 27.3986 21.1884 28.0574 21.0752 29.7824C21.0004 30.9206 20.9804 31.5929 21.018 31.7056C21.1232 32.0214 21.449 32.0927 21.7204 31.8593L21.8853 31.7175L22.0107 29.7812C22.1731 27.2736 22.1137 26.7391 21.5532 25.6615C21.0713 24.7349 21.0986 25.0004 21.0767 21.0324C21.0552 17.1552 21.0484 17.2355 21.4011 17.2355C21.7764 17.2355 21.7796 17.2526 21.7984 19.3939C21.8151 21.2843 21.8197 21.3482 21.946 21.4542C22.1198 21.6001 22.4083 21.5928 22.5625 21.4386C22.6833 21.3178 22.6875 21.2303 22.6875 18.8229C22.6875 17.1729 22.7107 16.2657 22.7563 16.1351C22.8307 15.9215 23.0194 15.8361 23.275 15.9002C23.5399 15.9667 23.5625 16.1785 23.5625 18.5997V20.8671L23.7272 20.9966C23.9345 21.1597 24.0651 21.16 24.271 20.998L24.4339 20.8699L24.4513 17.9732C24.4679 15.226 24.4749 15.0699 24.5878 14.9451C24.7327 14.785 24.9414 14.7763 25.1173 14.923C25.2464 15.0308 25.2486 15.0741 25.2647 17.9284L25.2812 20.8246L25.4566 20.9753C25.6709 21.1596 25.8084 21.1652 26.0206 20.9983L26.1832 20.8704L26.2009 18.5239L26.2188 16.1775L26.3663 16.0581C26.553 15.9069 26.6969 15.9069 26.8837 16.058C27.0291 16.1756 27.0315 16.1964 27.0504 17.4937L27.0695 18.8101L27.2307 18.9368C27.4349 19.0975 27.5659 19.0969 27.7728 18.9341L27.9375 18.8046V17.4004C27.9375 16.1337 27.9256 15.9729 27.8162 15.7583C27.5559 15.2481 27.0017 14.9496 26.4538 15.0247C26.2411 15.0539 26.1875 15.0421 26.1875 14.9662C26.1875 14.7932 25.9482 14.3985 25.7241 14.2017C25.3662 13.8875 24.8823 13.801 24.4148 13.9677ZM17.4375 18.0011C17.3264 18.1122 17.3132 18.2046 17.3188 18.8292C17.3222 19.216 17.3433 19.8091 17.3656 20.1473C17.4016 20.692 17.4231 20.7759 17.5538 20.8817C17.7559 21.0452 17.9754 21.0314 18.1636 20.8432L18.3214 20.6854L18.2799 19.5776C18.2341 18.3562 18.1796 18.0347 18.002 17.9397C17.814 17.8391 17.5733 17.8653 17.4375 18.0011ZM27.1659 20.4904C27.076 20.5898 27.0625 20.7921 27.0625 22.039C27.0625 23.6142 27.0713 23.6555 27.4489 23.8507C27.7448 24.0037 27.9854 23.918 28.6312 23.4296C29.3276 22.903 30.0089 22.5636 30.3699 22.5636C30.5606 22.5636 30.6728 22.6081 30.8247 22.7438L31.0263 22.924L30.5288 23.1757C29.9235 23.4819 29.7147 23.6957 29.0971 24.6414C28.6022 25.399 28.4563 25.5442 27.8804 25.8515C27.1881 26.221 26.6784 26.9339 26.5943 27.6504C26.5737 27.8261 26.5991 28.8136 26.6508 29.8449L26.7448 31.7199L26.9071 31.8605C27.1619 32.0812 27.4456 32.039 27.5886 31.7592C27.6589 31.6215 27.658 31.2891 27.5832 29.7067C27.5168 28.3021 27.5115 27.753 27.5628 27.5626C27.6558 27.2171 27.9976 26.8551 28.4608 26.6112C28.9736 26.3412 29.4549 25.8449 29.9011 25.1261C30.4046 24.3149 30.51 24.213 31.1581 23.91C31.7393 23.6383 31.9077 23.4781 31.9771 23.1314C32.1096 22.4687 31.2327 21.6256 30.4119 21.6265C29.8377 21.6271 29.1122 21.9156 28.4394 22.4109C28.2319 22.5637 28.0341 22.6886 27.9998 22.6886C27.9609 22.6886 27.9375 22.2941 27.9375 21.6358C27.9375 20.6952 27.9253 20.572 27.8232 20.4796C27.6687 20.3397 27.2967 20.3459 27.1659 20.4904ZM1.26969 28.6891C1.19463 28.7193 1.10181 28.8027 1.0635 28.8743C0.966188 29.0561 0.82 31.4854 0.893125 31.7056C0.998 32.0214 1.324 32.0927 1.59537 31.8593C1.75825 31.7192 1.76131 31.7012 1.845 30.3792C1.9335 28.9814 1.925 28.8995 1.67313 28.7231C1.51806 28.6145 1.46575 28.6101 1.26969 28.6891Z" fill="black"/>
</g>
<defs>
<clipPath id="clip0_3011_6107">
<rect width="32" height="32" fill="white"/>
</clipPath>
</defs>
</svg>
