<svg width="150" height="50" viewBox="0 0 150 50" fill="none" xmlns="http://www.w3.org/2000/svg">
<g clip-path="url(#clip0_2360_8027)">
<path d="M136.666 0.832031H13.333C6.42945 0.832031 0.833008 6.42847 0.833008 13.332V36.6654C0.833008 43.5689 6.42945 49.1654 13.333 49.1654H136.666C143.57 49.1654 149.166 43.5689 149.166 36.6654V13.332C149.166 6.42847 143.57 0.832031 136.666 0.832031Z" fill="#0C0D10"/>
<path d="M101.908 24V26.8638H100.113V28.7418H101.908V35.123C101.908 37.302 102.893 38.1737 105.373 38.1737C105.809 38.1737 106.224 38.1217 106.587 38.0595V36.2022C106.276 36.2333 106.079 36.254 105.736 36.254C104.626 36.254 104.139 35.7352 104.139 34.5523V28.7418H106.587V26.8638H104.139V24H101.908Z" fill="white"/>
<path d="M112.904 38.3289C116.204 38.3289 118.227 36.1189 118.227 32.4563C118.227 28.8142 116.194 26.5938 112.904 26.5938C109.605 26.5938 107.571 28.8142 107.571 32.4563C107.571 36.1189 109.595 38.3289 112.904 38.3289ZM112.904 36.3473C110.964 36.3473 109.875 34.9256 109.875 32.4563C109.875 30.0074 110.964 28.5756 112.904 28.5756C114.834 28.5756 115.934 30.0074 115.934 32.4563C115.934 34.9152 114.834 36.3473 112.904 36.3473Z" fill="white"/>
<path d="M119.958 38.1112H122.189V31.4395C122.189 29.8518 123.383 28.7832 125.074 28.7832C125.468 28.7832 126.132 28.8558 126.319 28.918V26.7183C126.08 26.6562 125.655 26.625 125.323 26.625C123.85 26.625 122.594 27.4343 122.272 28.5445H122.106V26.8117H119.958V38.1112Z" fill="white"/>
<path d="M131.858 28.4926C133.508 28.4926 134.587 29.6442 134.639 31.4186H128.932C129.057 29.6547 130.209 28.4926 131.858 28.4926ZM134.629 35.0606C134.214 35.9426 133.29 36.4302 131.941 36.4302C130.157 36.4302 129.005 35.1747 128.932 33.1929V33.0684H136.911V32.2901C136.911 28.7416 135.013 26.5938 131.869 26.5938C128.683 26.5938 126.66 28.8869 126.66 32.4978C126.66 36.1086 128.642 38.3289 131.879 38.3289C134.463 38.3289 136.268 37.0839 136.777 35.0606H134.629Z" fill="white"/>
<path d="M87.2783 33.9411C87.4505 36.7157 89.7627 38.4901 93.204 38.4901C96.882 38.4901 99.1835 36.6296 99.1835 33.6614C99.1835 31.3278 97.8715 30.0373 94.6882 29.2951L92.9782 28.8757C90.9563 28.4026 90.139 27.7681 90.139 26.6603C90.139 25.2623 91.408 24.3481 93.3115 24.3481C95.1183 24.3481 96.3658 25.2408 96.5917 26.6711H98.9362C98.7963 24.0578 96.4948 22.2188 93.3438 22.2188C89.9562 22.2188 87.6978 24.0577 87.6978 26.8216C87.6978 29.1016 88.9775 30.4566 91.7845 31.1126L93.7848 31.5966C95.8388 32.0806 96.7422 32.7902 96.7422 33.9732C96.7422 35.3499 95.3227 36.3501 93.3868 36.3501C91.3113 36.3501 89.8702 35.4144 89.6658 33.9411H87.2783Z" fill="white"/>
<path d="M64.1692 26.625C62.6336 26.625 61.3056 27.3928 60.6207 28.6793H60.4547V26.8117H58.3069V41.8673H60.5377V36.3992H60.7141C61.3056 37.5923 62.5817 38.298 64.1901 38.298C67.0434 38.298 68.8592 36.0463 68.8592 32.4563C68.8592 28.8662 67.0434 26.625 64.1692 26.625ZM63.5364 36.2953C61.6687 36.2953 60.4962 34.822 60.4962 32.4667C60.4962 30.101 61.6687 28.6275 63.5467 28.6275C65.4351 28.6275 66.5661 30.0698 66.5661 32.4563C66.5661 34.8532 65.4351 36.2953 63.5364 36.2953Z" fill="white"/>
<path d="M76.666 26.625C75.1304 26.625 73.8024 27.3928 73.1175 28.6793H72.9515V26.8117H70.8037V41.8673H73.0345V36.3992H73.2109C73.8024 37.5923 75.0785 38.298 76.6869 38.298C79.5402 38.298 81.356 36.0463 81.356 32.4563C81.356 28.8662 79.5402 26.625 76.666 26.625ZM76.0332 36.2953C74.1654 36.2953 72.993 34.822 72.993 32.4667C72.993 30.101 74.1654 28.6275 76.0435 28.6275C77.9319 28.6275 79.0629 30.0698 79.0629 32.4563C79.0629 34.8532 77.9319 36.2953 76.0332 36.2953Z" fill="white"/>
<path d="M54.3038 38.1124H56.8633L51.2603 22.5938H48.6684L43.0654 38.1124H45.5389L46.9693 33.9934H52.8841L54.3038 38.1124ZM49.8406 25.4114H50.0234L52.2711 31.9716H47.5823L49.8406 25.4114Z" fill="white"/>
<path d="M44.5637 10.8906V18.377H47.2666C49.4974 18.377 50.7892 17.0021 50.7892 14.6104C50.7892 12.2551 49.4871 10.8906 47.2666 10.8906H44.5637ZM45.7257 11.949H47.1369C48.6882 11.949 49.6064 12.9347 49.6064 14.626C49.6064 16.3432 48.7037 17.3186 47.1369 17.3186H45.7257V11.949Z" fill="white"/>
<path d="M54.7458 18.4848C56.3957 18.4848 57.4073 17.3798 57.4073 15.5484C57.4073 13.7274 56.3905 12.6172 54.7458 12.6172C53.0962 12.6172 52.0793 13.7274 52.0793 15.5484C52.0793 17.3798 53.091 18.4848 54.7458 18.4848ZM54.7458 17.4939C53.7758 17.4939 53.231 16.7831 53.231 15.5484C53.231 14.324 53.7758 13.6081 54.7458 13.6081C55.7108 13.6081 56.2608 14.324 56.2608 15.5484C56.2608 16.7779 55.7108 17.4939 54.7458 17.4939Z" fill="white"/>
<path d="M66.0215 12.7266H64.9062L63.8997 17.0378H63.8115L62.6494 12.7266H61.5807L60.4185 17.0378H60.3355L59.3239 12.7266H58.1929L59.7492 18.3763H60.8959L62.0579 14.2155H62.1462L63.3134 18.3763H64.4704L66.0215 12.7266Z" fill="white"/>
<path d="M67.3066 18.3759H68.4221V15.0711C68.4221 14.1892 68.9461 13.6392 69.771 13.6392C70.596 13.6392 70.9901 14.0906 70.9901 14.9985V18.3759H72.1056V14.7183C72.1056 13.3746 71.4105 12.6172 70.1498 12.6172C69.299 12.6172 68.7386 12.9959 68.4636 13.6237H68.3806V12.7261H67.3066V18.3759Z" fill="white"/>
<path d="M73.8628 18.3742H74.9781V10.5195H73.8628V18.3742Z" fill="white"/>
<path d="M79.1733 18.4848C80.8231 18.4848 81.8348 17.3798 81.8348 15.5484C81.8348 13.7274 80.8179 12.6172 79.1733 12.6172C77.5236 12.6172 76.5066 13.7274 76.5066 15.5484C76.5066 17.3798 77.5183 18.4848 79.1733 18.4848ZM79.1733 17.4939C78.2031 17.4939 77.6584 16.7831 77.6584 15.5484C77.6584 14.324 78.2031 13.6081 79.1733 13.6081C80.1383 13.6081 80.6883 14.324 80.6883 15.5484C80.6883 16.7779 80.1383 17.4939 79.1733 17.4939Z" fill="white"/>
<path d="M85.158 17.5303C84.551 17.5303 84.1102 17.2344 84.1102 16.7261C84.1102 16.228 84.4628 15.9634 85.241 15.9116L86.621 15.8234V16.2955C86.621 16.9959 85.9985 17.5303 85.158 17.5303ZM84.8727 18.4693C85.6147 18.4693 86.232 18.1476 86.5692 17.5821H86.6573V18.3759H87.7313V14.516C87.7313 13.3228 86.9323 12.6172 85.516 12.6172C84.2347 12.6172 83.3215 13.2398 83.2073 14.2099H84.2865C84.411 13.8104 84.8417 13.5822 85.4642 13.5822C86.2268 13.5822 86.621 13.9194 86.621 14.516V15.0037L85.0907 15.0919C83.747 15.1749 82.9895 15.7611 82.9895 16.7779C82.9895 17.8104 83.7832 18.4693 84.8727 18.4693Z" fill="white"/>
<path d="M91.5174 18.4675C92.2955 18.4675 92.9544 18.0992 93.2917 17.4819H93.3799V18.3742H94.4485V10.5195H93.3332V13.622H93.2502C92.944 12.9994 92.2904 12.631 91.5174 12.631C90.0907 12.631 89.1724 13.762 89.1724 15.5467C89.1724 17.3365 90.0802 18.4675 91.5174 18.4675ZM91.8339 13.6323C92.7677 13.6323 93.3539 14.3742 93.3539 15.5519C93.3539 16.7347 92.7729 17.4662 91.8339 17.4662C90.8895 17.4662 90.324 16.745 90.324 15.5467C90.324 14.3586 90.8947 13.6323 91.8339 13.6323Z" fill="white"/>
<path d="M101.681 18.4848C103.33 18.4848 104.342 17.3798 104.342 15.5484C104.342 13.7274 103.325 12.6172 101.681 12.6172C100.031 12.6172 99.0142 13.7274 99.0142 15.5484C99.0142 17.3798 100.026 18.4848 101.681 18.4848ZM101.681 17.4939C100.711 17.4939 100.166 16.7831 100.166 15.5484C100.166 14.324 100.711 13.6081 101.681 13.6081C102.646 13.6081 103.196 14.324 103.196 15.5484C103.196 16.7779 102.646 17.4939 101.681 17.4939Z" fill="white"/>
<path d="M105.819 18.3759H106.934V15.0711C106.934 14.1892 107.458 13.6392 108.283 13.6392C109.108 13.6392 109.502 14.0906 109.502 14.9985V18.3759H110.618V14.7183C110.618 13.3746 109.922 12.6172 108.662 12.6172C107.811 12.6172 107.251 12.9959 106.976 13.6237H106.893V12.7261H105.819V18.3759Z" fill="white"/>
<path d="M115.754 11.3203V12.7522H114.857V13.6912H115.754V16.8819C115.754 17.9714 116.247 18.407 117.487 18.407C117.705 18.407 117.913 18.3812 118.094 18.35V17.4214C117.939 17.4369 117.84 17.4474 117.669 17.4474C117.114 17.4474 116.87 17.1879 116.87 16.5965V13.6912H118.094V12.7522H116.87V11.3203H115.754Z" fill="white"/>
<path d="M119.591 18.3742H120.707V15.0746C120.707 14.2186 121.215 13.6427 122.128 13.6427C122.917 13.6427 123.337 14.0992 123.337 15.002V18.3742H124.452V14.727C124.452 13.3833 123.71 12.6207 122.507 12.6207C121.656 12.6207 121.059 12.9994 120.784 13.6323H120.696V10.5195H119.591V18.3742Z" fill="white"/>
<path d="M128.476 13.5666C129.301 13.5666 129.841 14.1425 129.867 15.0296H127.013C127.075 14.1477 127.651 13.5666 128.476 13.5666ZM129.861 16.8506C129.654 17.2916 129.192 17.5354 128.518 17.5354C127.625 17.5354 127.049 16.9076 127.013 15.9168V15.8545H131.003V15.4654C131.003 13.6911 130.053 12.6172 128.481 12.6172C126.889 12.6172 125.877 13.7637 125.877 15.5692C125.877 17.3746 126.868 18.4848 128.487 18.4848C129.778 18.4848 130.681 17.8623 130.935 16.8506H129.861Z" fill="white"/>
<path d="M30.9609 25.3744C30.9881 23.2733 32.1166 21.2849 33.9068 20.1844C32.7774 18.5714 30.8858 17.5489 28.9178 17.4873C26.8188 17.2669 24.7838 18.7433 23.7141 18.7433C22.6238 18.7433 20.9769 17.5091 19.2034 17.5456C16.8919 17.6203 14.737 18.9346 13.6123 20.9554C11.1948 25.1409 12.9981 31.2923 15.3138 34.6756C16.4725 36.3323 17.8266 38.1828 19.5984 38.1173C21.3323 38.0453 21.9798 37.0116 24.0726 37.0116C26.1461 37.0116 26.7536 38.1173 28.5614 38.0754C30.4219 38.0453 31.5941 36.4114 32.7121 34.7391C33.5444 33.5586 34.1851 32.2539 34.6101 30.8734C32.4236 29.9486 30.9636 27.7484 30.9609 25.3744Z" fill="white"/>
<path d="M27.5471 15.2656C28.5614 14.0479 29.0613 12.4826 28.9403 10.9023C27.3904 11.0651 25.9589 11.8058 24.9308 12.9769C23.9254 14.121 23.4023 15.6587 23.5011 17.1786C25.0514 17.1946 26.5756 16.4739 27.5471 15.2656Z" fill="white"/>
<path d="M136.666 0.832031H13.333C6.42945 0.832031 0.833008 6.42847 0.833008 13.332V36.6654C0.833008 43.5689 6.42945 49.1654 13.333 49.1654H136.666C143.57 49.1654 149.166 43.5689 149.166 36.6654V13.332C149.166 6.42847 143.57 0.832031 136.666 0.832031Z" stroke="#A6A6A6" stroke-width="1.66667"/>
</g>
<defs>
<clipPath id="clip0_2360_8027">
<rect width="150" height="50" fill="white"/>
</clipPath>
</defs>
</svg>
