<svg width="198" height="95" viewBox="0 0 198 95" fill="none" xmlns="http://www.w3.org/2000/svg">
<g opacity="0.5">
<path d="M140.136 23.3079C146.044 19.6811 152.701 17.4183 159.375 16.7788C165.065 16.2218 170.976 16.839 176.605 18.5431L176.798 16.2823C170.946 14.5924 164.988 14.0044 159.165 14.5612C152.155 15.2385 145.178 17.6072 138.977 21.4089C132.777 25.2107 127.515 30.3704 123.74 36.324C122.675 37.9992 121.738 39.7298 120.92 41.5039C111.245 44.3749 102.637 49.7036 94.7437 55.1157C92.821 56.4286 90.8826 57.7957 89.015 59.1133C82.1735 63.9156 75.1074 68.8763 67.5177 72.5591C58.9547 76.714 49.3615 79.2809 39.7727 79.9818C29.9155 80.7041 20.3531 79.5409 11.3499 76.5147C7.65871 75.2654 4.07206 73.7029 0.675339 71.8678L0.4704 74.261C3.76726 75.9653 7.14097 77.4207 10.6495 78.5988C16.1331 80.446 21.8296 81.6226 27.6508 82.1211C31.6859 82.4666 35.7935 82.4851 39.9395 82.1847C49.7967 81.4623 59.6739 78.8198 68.4918 74.5423C76.2324 70.7835 83.3803 65.7742 90.2817 60.9216C92.1493 59.6039 94.0867 58.2478 95.9975 56.945C103.265 51.9681 111.114 47.0744 119.802 44.1856C117.178 51.0932 116.477 58.3655 117.905 65.0313C118.959 69.9763 121.27 74.6292 124.582 78.4901C128.016 82.4946 132.301 85.3613 136.989 86.7737C141.784 88.2286 147.121 88.0302 152.027 86.2506C157.059 84.4152 161.135 81.0425 163.523 76.7588C166.161 72.0298 166.759 66.2152 165.202 60.3938C163.73 54.8908 160.392 49.7723 156.033 46.3439C151.808 43.0269 146.672 40.8763 140.798 39.9622C135.483 39.1293 129.72 39.3801 124.133 40.6793C124.008 40.713 123.884 40.7357 123.759 40.7694C124.319 39.6731 124.945 38.5935 125.613 37.5398C129.21 31.8487 134.228 26.9347 140.136 23.3079ZM124.627 42.8213C129.942 41.5877 135.414 41.3565 140.456 42.1437C145.957 43.0036 150.739 45.0018 154.662 48.0818C158.648 51.2116 161.711 55.9066 163.055 60.9543C164.459 66.2183 163.934 71.4502 161.584 75.6706C157.253 83.4541 146.72 87.3959 137.615 84.6498C133.339 83.3615 129.411 80.7255 126.25 77.0442C123.181 73.4596 121.04 69.1546 120.055 64.571C118.601 57.8141 119.507 50.3483 122.515 43.3625C123.221 43.1564 123.925 42.9833 124.627 42.8213Z" fill="white"/>
<path d="M197.259 23.6372L176.168 4.38445L175.862 12.861L190.627 20.9103L175.748 15.9906L175.748 15.9987L175.748 15.989L169.237 18.1359L175.576 20.7424L175.358 26.7642L197.259 23.6372Z" fill="white"/>
</g>
</svg>
