<svg width="113" height="122" viewBox="0 0 113 122" fill="none" xmlns="http://www.w3.org/2000/svg">
<path d="M76.9099 33.3823C67.6575 42.6372 51.856 38.4055 48.4673 25.7653L37.6722 -14.501C34.2834 -27.1413 45.8489 -38.7099 58.49 -35.3245L98.7592 -24.5402C111.4 -21.1548 115.636 -5.35454 106.384 3.90033L76.9099 33.3823Z" fill="#A1C3FC" fill-opacity="0.6"/>
<path d="M91.5085 59.1923C78.8117 56.0217 74.3085 40.2955 83.4027 30.8851L107.805 5.63408C116.899 -3.77632 132.77 0.186893 136.373 12.7679L146.04 46.5265C149.642 59.1074 138.274 70.8704 125.578 67.6999L91.5085 59.1923Z" fill="#A1C3FC" fill-opacity="0.6"/>
<path d="M66.7274 80.0684C66.3854 66.2162 81.1671 57.1885 93.3344 63.8184L125.831 81.5258C137.999 88.1558 138.426 105.471 126.601 112.693L95.0172 131.983C83.1919 139.205 67.9827 130.918 67.6407 117.065L66.7274 80.0684Z" fill="#A1C3FC" fill-opacity="0.6"/>
</svg>
