<svg width="27" height="27" viewBox="0 0 27 27" fill="none" xmlns="http://www.w3.org/2000/svg">
<g id="Traced Image">
<path id="Vector" fillRule="evenodd" clipRule="evenodd" d="M6.01678 1.31406C6.37858 6.78008 7.54268 9.81285 10.2362 12.3066C10.6812 12.7185 11.8237 13.5954 12.7751 14.2554C15.8167 16.3649 17.0794 17.7753 17.9153 19.9964C18.347 21.1439 18.7635 23.2034 18.7646 24.1966L18.7651 24.7028H13.5756C10.7213 24.7028 8.35984 24.6572 8.32771 24.6016C8.22835 24.4289 8.50348 22.529 8.79103 21.4014C9.32792 19.2963 10.2704 17.5731 11.5927 16.2785L12.2686 15.6166L11.3248 15.0129L10.3809 14.4091L10.0338 14.7297C8.8156 15.8549 7.25851 18.6311 6.7586 20.5688C6.44338 21.7914 6.12667 23.9694 6.01529 25.6816L5.93848 26.8628H13.4993H21.0601L21.06 25.9516C21.0596 22.4613 20.3076 19.2666 19.0138 17.2584C17.9336 15.5817 16.7778 14.509 14.0436 12.6452C11.9168 11.1955 10.6831 10.091 9.97916 9.00636C9.13622 7.70753 8.43206 5.4591 8.16193 3.20406L8.06905 2.42781H13.3496H18.6301V3.01763C18.6301 4.02054 18.2387 5.91594 17.7796 7.13567C17.2458 8.55425 16.6086 9.5361 15.5066 10.6381C15.0471 11.0976 14.6961 11.4945 14.7268 11.5199C14.7575 11.5453 15.1741 11.8287 15.6525 12.1497L16.5225 12.7334L17.475 11.7207C19.6735 9.38342 20.6623 6.57339 20.8757 2.05656L20.9667 0.132812H13.4526H5.93848L6.01678 1.31406Z" fill="black"/>
</g>
</svg>
