<svg width="15" height="15" viewBox="0 0 15 15" fill="none" xmlns="http://www.w3.org/2000/svg">
<path d="M11.2529 12.5H3.75293V13.75H2.50293V12.5H1.87793C1.53275 12.5 1.25293 12.2202 1.25293 11.875V2.5C1.25293 2.15483 1.53275 1.875 1.87793 1.875H13.1279C13.4731 1.875 13.7529 2.15483 13.7529 2.5V11.875C13.7529 12.2202 13.4731 12.5 13.1279 12.5H12.5029V13.75H11.2529V12.5ZM2.50293 11.25H12.5029V3.125H2.50293V11.25ZM8.12794 8.67125V10.625H6.87794V8.67125C5.79967 8.39369 5.00293 7.41488 5.00293 6.25C5.00293 4.86929 6.12222 3.75 7.50294 3.75C8.88363 3.75 10.0029 4.86929 10.0029 6.25C10.0029 7.41488 9.20619 8.39369 8.12794 8.67125ZM7.50294 7.5C8.19332 7.5 8.75294 6.94038 8.75294 6.25C8.75294 5.55964 8.19332 5 7.50294 5C6.81257 5 6.25294 5.55964 6.25294 6.25C6.25294 6.94038 6.81257 7.5 7.50294 7.5Z" fill="black"/>
</svg>
