<svg width="26" height="26" viewBox="0 0 26 26" fill="none" xmlns="http://www.w3.org/2000/svg">
<path d="M11.9167 11.9167V7.58333H14.0834V11.9167H18.4167V14.0833H14.0834V18.4167H11.9167V14.0833H7.58335V11.9167H11.9167ZM13 23.8333C7.01693 23.8333 2.16669 18.983 2.16669 13C2.16669 7.01691 7.01693 2.16667 13 2.16667C18.9831 2.16667 23.8334 7.01691 23.8334 13C23.8334 18.983 18.9831 23.8333 13 23.8333ZM13 21.6667C17.7865 21.6667 21.6667 17.7865 21.6667 13C21.6667 8.21353 17.7865 4.33333 13 4.33333C8.21355 4.33333 4.33335 8.21353 4.33335 13C4.33335 17.7865 8.21355 21.6667 13 21.6667Z" fill="black"/>
</svg>
