<svg width="20" height="20" viewBox="0 0 20 20" fill="none" xmlns="http://www.w3.org/2000/svg">
<path d="M5.24 0H3.34C1.15 0 0 1.15 0 3.33V5.23C0 7.41 1.15 8.56 3.33 8.56H5.23C7.41 8.56 8.56 7.41 8.56 5.23V3.33C8.57 1.15 7.42 0 5.24 0Z" fill="black"/>
<path opacity="0.6" d="M16.67 0H14.77C12.59 0 11.44 1.15 11.44 3.33V5.23C11.44 7.41 12.59 8.56 14.77 8.56H16.67C18.85 8.56 20 7.41 20 5.23V3.33C20 1.15 18.85 0 16.67 0Z" fill="black"/>
<path d="M16.67 11.4297H14.77C12.59 11.4297 11.44 12.5797 11.44 14.7597V16.6597C11.44 18.8397 12.59 19.9897 14.77 19.9897H16.67C18.85 19.9897 20 18.8397 20 16.6597V14.7597C20 12.5797 18.85 11.4297 16.67 11.4297Z" fill="black"/>
<path opacity="0.6" d="M5.24 11.4297H3.34C1.15 11.4297 0 12.5797 0 14.7597V16.6597C0 18.8497 1.15 19.9997 3.33 19.9997H5.23C7.41 19.9997 8.56 18.8497 8.56 16.6697V14.7697C8.57 12.5797 7.42 11.4297 5.24 11.4297Z" fill="black"/>
</svg>
