<svg width="22" height="22" viewBox="0 0 22 22" fill="none" xmlns="http://www.w3.org/2000/svg">
<path d="M11 14.75C8.93 14.75 7.25 13.07 7.25 11C7.25 8.93 8.93 7.25 11 7.25C13.07 7.25 14.75 8.93 14.75 11C14.75 13.07 13.07 14.75 11 14.75ZM11 8.75C9.76 8.75 8.75 9.76 8.75 11C8.75 12.24 9.76 13.25 11 13.25C12.24 13.25 13.25 12.24 13.25 11C13.25 9.76 12.24 8.75 11 8.75Z" fill="#A5B3CD"/>
<path d="M14.21 21.1903C14 21.1903 13.79 21.1603 13.58 21.1103C12.96 20.9403 12.44 20.5503 12.11 20.0003L11.99 19.8003C11.4 18.7803 10.59 18.7803 10 19.8003L9.89 19.9903C9.56 20.5503 9.04 20.9503 8.42 21.1103C7.79 21.2803 7.14 21.1903 6.59 20.8603L4.87 19.8703C4.56778 19.6971 4.30266 19.4661 4.08981 19.1904C3.87695 18.9146 3.72055 18.5997 3.62953 18.2635C3.53851 17.9272 3.51466 17.5764 3.55936 17.2309C3.60405 16.8855 3.71641 16.5523 3.89 16.2503C4.18 15.7403 4.26 15.2803 4.09 14.9903C3.92 14.7003 3.49 14.5303 2.9 14.5303C1.44 14.5303 0.25 13.3403 0.25 11.8803V10.1203C0.25 8.66029 1.44 7.47029 2.9 7.47029C3.49 7.47029 3.92 7.30029 4.09 7.01029C4.26 6.72029 4.19 6.26029 3.89 5.75029C3.54 5.14029 3.45 4.42029 3.63 3.74029C3.81 3.05029 4.25 2.48029 4.87 2.13029L6.6 1.14029C7.73 0.470286 9.22 0.860286 9.9 2.01029L10.02 2.21029C10.61 3.23029 11.42 3.23029 12.01 2.21029L12.12 2.02029C12.8 0.860286 14.29 0.470286 15.43 1.15029L17.15 2.14029C17.4522 2.31345 17.7173 2.5445 17.9302 2.82022C18.143 3.09593 18.2995 3.4109 18.3905 3.74712C18.4815 4.08333 18.5053 4.43419 18.4606 4.77963C18.4159 5.12507 18.3036 5.45831 18.13 5.76029C17.84 6.27029 17.76 6.73029 17.93 7.02029C18.1 7.31029 18.53 7.48029 19.12 7.48029C20.58 7.48029 21.77 8.67029 21.77 10.1303V11.8903C21.77 13.3503 20.58 14.5403 19.12 14.5403C18.53 14.5403 18.1 14.7103 17.93 15.0003C17.76 15.2903 17.83 15.7503 18.13 16.2603C18.48 16.8703 18.58 17.5903 18.39 18.2703C18.3031 18.6086 18.1483 18.9258 17.9352 19.2025C17.722 19.4793 17.4549 19.7098 17.15 19.8803L15.42 20.8703C15.04 21.0803 14.63 21.1903 14.21 21.1903ZM11 17.4903C11.89 17.4903 12.72 18.0503 13.29 19.0403L13.4 19.2303C13.52 19.4403 13.72 19.5903 13.96 19.6503C14.2 19.7103 14.44 19.6803 14.64 19.5603L16.37 18.5603C16.634 18.408 16.8273 18.1577 16.9078 17.8637C16.9883 17.5697 16.9496 17.2559 16.8 16.9903C16.23 16.0103 16.16 15.0003 16.6 14.2303C17.04 13.4603 17.95 13.0203 19.09 13.0203C19.73 13.0203 20.24 12.5103 20.24 11.8703V10.1103C20.24 9.48029 19.73 8.96029 19.09 8.96029C17.95 8.96029 17.04 8.52029 16.6 7.75029C16.16 6.98029 16.23 5.97029 16.8 4.99029C16.95 4.73029 16.99 4.42029 16.91 4.12029C16.83 3.82029 16.64 3.58029 16.38 3.42029L14.65 2.43029C14.5456 2.36909 14.4302 2.32908 14.3104 2.31254C14.1905 2.29601 14.0686 2.30328 13.9515 2.33393C13.8345 2.36458 13.7247 2.41802 13.6283 2.49118C13.532 2.56434 13.451 2.65579 13.39 2.76029L13.28 2.95029C12.71 3.94029 11.88 4.50029 10.99 4.50029C10.1 4.50029 9.27 3.94029 8.7 2.95029L8.59 2.75029C8.46573 2.54592 8.26661 2.39812 8.03501 2.33836C7.80342 2.27859 7.55764 2.31157 7.35 2.43029L5.62 3.43029C5.35598 3.58258 5.16272 3.83291 5.0822 4.12688C5.00169 4.42085 5.04043 4.73471 5.19 5.00029C5.76 5.98029 5.83 6.99029 5.39 7.76029C4.95 8.53029 4.04 8.97029 2.9 8.97029C2.26 8.97029 1.75 9.48029 1.75 10.1203V11.8803C1.75 12.5103 2.26 13.0303 2.9 13.0303C4.04 13.0303 4.95 13.4703 5.39 14.2403C5.83 15.0103 5.76 16.0203 5.19 17.0003C5.04 17.2603 5 17.5703 5.08 17.8703C5.16 18.1703 5.35 18.4103 5.61 18.5703L7.34 19.5603C7.55 19.6903 7.8 19.7203 8.03 19.6603C8.27 19.6003 8.47 19.4403 8.6 19.2303L8.71 19.0403C9.28 18.0603 10.11 17.4903 11 17.4903Z" fill="#A5B3CD"/>
</svg>
