<svg width="24" height="24" viewBox="0 0 24 24" fill="none" xmlns="http://www.w3.org/2000/svg">
<path d="M15.24 22.2705H15.11C10.67 22.2705 8.53003 20.5205 8.16003 16.6005C8.12003 16.1905 8.42003 15.8205 8.84003 15.7805C9.24003 15.7405 9.62003 16.0505 9.66003 16.4605C9.95003 19.6005 11.43 20.7705 15.12 20.7705H15.25C19.32 20.7705 20.76 19.3305 20.76 15.2605V8.74047C20.76 4.67047 19.32 3.23047 15.25 3.23047H15.12C11.41 3.23047 9.93003 4.42047 9.66003 7.62047C9.61003 8.03047 9.26003 8.34047 8.84003 8.30047C8.74147 8.29277 8.6454 8.26569 8.55733 8.22077C8.46927 8.17586 8.39094 8.114 8.32683 8.03875C8.26272 7.96349 8.21411 7.87632 8.18377 7.78224C8.15343 7.68815 8.14196 7.589 8.15003 7.49047C8.49003 3.51047 10.64 1.73047 15.11 1.73047H15.24C20.15 1.73047 22.25 3.83047 22.25 8.74047V15.2605C22.25 20.1705 20.15 22.2705 15.24 22.2705Z" fill="#A5B3CD"/>
<path d="M15 12.75H3.62C3.21 12.75 2.87 12.41 2.87 12C2.87 11.59 3.21 11.25 3.62 11.25H15C15.41 11.25 15.75 11.59 15.75 12C15.75 12.41 15.41 12.75 15 12.75Z" fill="#A5B3CD"/>
<path d="M5.85002 16.0998C5.66002 16.0998 5.47002 16.0298 5.32002 15.8798L1.97002 12.5298C1.83054 12.3887 1.75232 12.1983 1.75232 11.9998C1.75232 11.8014 1.83054 11.611 1.97002 11.4698L5.32002 8.11984C5.61002 7.82984 6.09002 7.82984 6.38002 8.11984C6.67002 8.40984 6.67002 8.88984 6.38002 9.17984L3.56002 11.9998L6.38002 14.8198C6.67002 15.1098 6.67002 15.5898 6.38002 15.8798C6.24002 16.0298 6.04002 16.0998 5.85002 16.0998Z" fill="#A5B3CD"/>
</svg>
