<svg width="37" height="36" viewBox="0 0 37 36" fill="none" xmlns="http://www.w3.org/2000/svg">
<path d="M29.5498 11.793V19.4565C29.5498 24.0397 26.9308 26.0038 23.0024 26.0038H9.92241C9.25279 26.0038 8.61293 25.9444 8.01771 25.8105C7.6457 25.751 7.28858 25.6468 6.96121 25.5277C4.72913 24.6944 3.375 22.7599 3.375 19.4565V11.793C3.375 7.20978 5.99396 5.24561 9.92241 5.24561H23.0024C26.3356 5.24561 28.7314 6.65925 29.3712 9.88832C29.4754 10.4835 29.5498 11.0936 29.5498 11.793Z" stroke="black" stroke-width="2.18215" stroke-miterlimit="10" stroke-linecap="round" stroke-linejoin="round"/>
<path d="M34.0158 16.2572V23.9207C34.0158 28.5039 31.3968 30.4681 27.4684 30.4681H14.3884C13.2872 30.4681 12.2902 30.3194 11.4272 29.992C9.6564 29.3373 8.45107 27.9831 8.01953 25.8106C8.61475 25.9445 9.25461 26.004 9.92423 26.004H23.0042C26.9327 26.004 29.5516 24.0398 29.5516 19.4566V11.7931C29.5516 11.0937 29.4921 10.4688 29.3731 9.88843C32.2004 10.4836 34.0158 12.4776 34.0158 16.2572Z" stroke="black" stroke-width="2.18215" stroke-miterlimit="10" stroke-linecap="round" stroke-linejoin="round"/>
<path d="M16.4558 19.5606C18.6254 19.5606 20.3843 17.8017 20.3843 15.6321C20.3843 13.4625 18.6254 11.7036 16.4558 11.7036C14.2862 11.7036 12.5273 13.4625 12.5273 15.6321C12.5273 17.8017 14.2862 19.5606 16.4558 19.5606Z" stroke="black" stroke-width="2.18215" stroke-miterlimit="10" stroke-linecap="round" stroke-linejoin="round"/>
<path d="M7.94531 12.3584V18.9059" stroke="black" stroke-width="2.18215" stroke-miterlimit="10" stroke-linecap="round" stroke-linejoin="round"/>
<path d="M24.9688 12.3589V18.9063" stroke="black" stroke-width="2.18215" stroke-miterlimit="10" stroke-linecap="round" stroke-linejoin="round"/>
</svg>
