<svg width="171" height="50" viewBox="0 0 171 50" fill="none" xmlns="http://www.w3.org/2000/svg">
<g clip-path="url(#clip0_2360_8054)">
<path d="M155.75 0.832031H13.6665C6.76294 0.832031 1.1665 6.42847 1.1665 13.332V36.6654C1.1665 43.5689 6.76294 49.1654 13.6665 49.1654H155.75C162.653 49.1654 168.25 43.5689 168.25 36.6654V13.332C168.25 6.42847 162.653 0.832031 155.75 0.832031Z" fill="black"/>
<path d="M85.504 27.1886C82.564 27.1886 80.1676 29.4249 80.1676 32.5049C80.1676 35.5661 82.564 37.8211 85.504 37.8211C88.4451 37.8211 90.8415 35.5661 90.8415 32.5049C90.8401 29.4249 88.444 27.1886 85.504 27.1886ZM85.504 35.7286C83.8926 35.7286 82.504 34.3999 82.504 32.5061C82.504 30.5924 83.894 29.2836 85.504 29.2836C87.1151 29.2836 88.504 30.5924 88.504 32.5061C88.504 34.3986 87.1151 35.7286 85.504 35.7286ZM73.8615 27.1886C70.9215 27.1886 68.5251 29.4249 68.5251 32.5049C68.5251 35.5661 70.9215 37.8211 73.8615 37.8211C76.8026 37.8211 79.199 35.5661 79.199 32.5049C79.199 29.4249 76.8026 27.1886 73.8615 27.1886ZM73.8615 35.7286C72.2501 35.7286 70.8615 34.3999 70.8615 32.5061C70.8615 30.5924 72.2515 29.2836 73.8615 29.2836C75.4726 29.2836 76.8615 30.5924 76.8615 32.5061C76.8626 34.3986 75.4726 35.7286 73.8615 35.7286ZM60.014 28.8211V31.0761H65.4115C65.2501 32.3449 64.8276 33.2711 64.1826 33.9149C63.3976 34.6999 62.169 35.5661 60.014 35.5661C56.6915 35.5661 54.094 32.8874 54.094 29.5649C54.094 26.2424 56.6915 23.5636 60.014 23.5636C61.8065 23.5636 63.1151 24.2686 64.0815 25.1749L65.6726 23.5836C64.3226 22.2949 62.5315 21.3086 60.014 21.3086C55.4626 21.3086 51.6365 25.0136 51.6365 29.5649C51.6365 34.1161 55.4626 37.8211 60.014 37.8211C62.4701 37.8211 64.324 37.0149 65.7726 35.5049C67.2626 34.0149 67.7265 31.9199 67.7265 30.2286C67.7265 29.7061 67.6865 29.2224 67.6051 28.8199L60.014 28.8211ZM116.649 30.5724C116.206 29.3849 114.856 27.1886 112.098 27.1886C109.359 27.1886 107.083 29.3436 107.083 32.5049C107.083 35.4849 109.339 37.8211 112.359 37.8211C114.795 37.8211 116.205 36.3311 116.79 35.4649L114.978 34.2561C114.374 35.1424 113.548 35.7261 112.359 35.7261C111.171 35.7261 110.325 35.1824 109.781 34.1149L116.89 31.1749L116.649 30.5724ZM109.399 32.3449C109.339 30.2899 110.99 29.2436 112.179 29.2436C113.105 29.2436 113.89 29.7074 114.153 30.3711L109.399 32.3449ZM103.62 37.4999H105.955V21.8736H103.62V37.4999ZM99.7926 28.3774H99.7126C99.189 27.7524 98.1815 27.1886 96.914 27.1886C94.2551 27.1886 91.819 29.5249 91.819 32.5261C91.819 35.5061 94.2551 37.8224 96.914 37.8224C98.1826 37.8224 99.189 37.2586 99.7126 36.6149H99.7926V37.3799C99.7926 39.4136 98.7051 40.5011 96.954 40.5011C95.524 40.5011 94.6376 39.4749 94.2751 38.6086L92.2415 39.4549C92.8251 40.8636 94.3751 42.5961 96.954 42.5961C99.6926 42.5961 102.009 40.9849 102.009 37.0574V27.5124H99.794L99.7926 28.3774ZM97.1151 35.7286C95.504 35.7286 94.1551 34.3786 94.1551 32.5261C94.1551 30.6524 95.504 29.2836 97.1151 29.2836C98.7051 29.2836 99.954 30.6524 99.954 32.5261C99.954 34.3786 98.7051 35.7286 97.1151 35.7286ZM127.591 21.8736H122.003V37.4999H124.334V31.5799H127.59C130.175 31.5799 132.718 29.7086 132.718 26.7274C132.718 23.7461 130.176 21.8736 127.591 21.8736ZM127.651 29.4049H124.334V24.0486H127.651C129.395 24.0486 130.385 25.4924 130.385 26.7274C130.385 27.9374 129.395 29.4049 127.651 29.4049ZM142.066 27.1611C140.378 27.1611 138.629 27.9049 137.905 29.5536L139.975 30.4174C140.418 29.5536 141.243 29.2711 142.106 29.2711C143.313 29.2711 144.539 29.9949 144.559 31.2811V31.4424C144.136 31.2011 143.231 30.8399 142.126 30.8399C139.895 30.8399 137.623 32.0661 137.623 34.3574C137.623 36.4486 139.453 37.7949 141.503 37.7949C143.07 37.7949 143.935 37.0911 144.478 36.2661H144.558V37.4724H146.81V31.4811C146.811 28.7086 144.739 27.1611 142.066 27.1611ZM141.784 35.7249C141.021 35.7249 139.955 35.3424 139.955 34.3974C139.955 33.1911 141.283 32.7286 142.429 32.7286C143.453 32.7286 143.936 32.9499 144.559 33.2511C144.378 34.6999 143.131 35.7249 141.784 35.7249ZM155.013 27.5024L152.339 34.2774H152.259L149.484 27.5024H146.971L151.133 36.9711L148.76 42.2386H151.193L157.606 27.5024H155.013ZM134.005 37.4999H136.336V21.8736H134.005V37.4999Z" fill="white"/>
<path d="M59.6064 12.802C59.6064 13.8495 59.2964 14.6833 58.6751 15.3058C57.9701 16.0458 57.0501 16.4158 55.9201 16.4158C54.8376 16.4158 53.9164 16.0408 53.1601 15.2908C52.4026 14.5395 52.0239 13.6095 52.0239 12.4995C52.0239 11.3883 52.4026 10.4583 53.1601 9.70828C53.9164 8.95703 54.8376 8.58203 55.9201 8.58203C56.4576 8.58203 56.9714 8.68703 57.4589 8.89578C57.9476 9.10578 58.3389 9.38453 58.6314 9.73328L57.9726 10.3933C57.4764 9.79953 56.7926 9.50328 55.9189 9.50328C55.1289 9.50328 54.4464 9.78078 53.8701 10.3358C53.2939 10.8908 53.0064 11.612 53.0064 12.4983C53.0064 13.3845 53.2939 14.1058 53.8701 14.6608C54.4464 15.2158 55.1289 15.4933 55.9189 15.4933C56.7564 15.4933 57.4551 15.2145 58.0139 14.6558C58.3764 14.292 58.5864 13.7858 58.6426 13.137H55.9189V12.2358H59.5526C59.5901 12.432 59.6064 12.6208 59.6064 12.802Z" fill="white"/>
<path d="M65.3689 9.67125H61.9539V12.0488H65.0339V12.95H61.9539V15.3275H65.3689V16.25H60.9902V8.75H65.3689V9.67125Z" fill="white"/>
<path d="M69.4324 16.25H68.4685V9.67125H66.3735V8.75H71.5274V9.67125H69.4324V16.25Z" fill="white"/>
<path d="M75.2561 16.25V8.75H76.2199V16.25H75.2561Z" fill="white"/>
<path d="M80.4937 16.25H79.5301V9.67125H77.4351V8.75H82.5887V9.67125H80.4937V16.25Z" fill="white"/>
<path d="M92.3446 15.282C91.6071 16.0395 90.691 16.4183 89.5946 16.4183C88.4985 16.4183 87.5821 16.0395 86.846 15.282C86.1085 14.5245 85.741 13.597 85.741 12.5008C85.741 11.4045 86.1085 10.477 86.846 9.71953C87.5821 8.96203 88.4985 8.58203 89.5946 8.58203C90.6846 8.58203 91.5996 8.96328 92.3396 9.72453C93.0796 10.4858 93.4496 11.4108 93.4496 12.5008C93.4496 13.597 93.081 14.5245 92.3446 15.282ZM87.5571 14.6533C88.1121 15.2158 88.791 15.4958 89.5946 15.4958C90.3985 15.4958 91.0785 15.2145 91.6321 14.6533C92.1871 14.0908 92.466 13.3733 92.466 12.5008C92.466 11.6283 92.1871 10.9108 91.6321 10.3483C91.0785 9.78578 90.3985 9.50578 89.5946 9.50578C88.791 9.50578 88.1121 9.78703 87.5571 10.3483C87.0035 10.9108 86.7246 11.6283 86.7246 12.5008C86.7246 13.3733 87.0035 14.0908 87.5571 14.6533Z" fill="white"/>
<path d="M94.8025 16.25V8.75H95.975L99.62 14.5838H99.6613L99.62 13.1388V8.75H100.584V16.25H99.5775L95.7638 10.1325H95.7225L95.7638 11.5775V16.25H94.8025Z" fill="white"/>
<path d="M59.6064 12.802C59.6064 13.8495 59.2964 14.6833 58.6751 15.3058C57.9701 16.0458 57.0501 16.4158 55.9201 16.4158C54.8376 16.4158 53.9164 16.0408 53.1601 15.2908C52.4026 14.5395 52.0239 13.6095 52.0239 12.4995C52.0239 11.3883 52.4026 10.4583 53.1601 9.70828C53.9164 8.95703 54.8376 8.58203 55.9201 8.58203C56.4576 8.58203 56.9714 8.68703 57.4589 8.89578C57.9476 9.10578 58.3389 9.38453 58.6314 9.73328L57.9726 10.3933C57.4764 9.79953 56.7926 9.50328 55.9189 9.50328C55.1289 9.50328 54.4464 9.78078 53.8701 10.3358C53.2939 10.8908 53.0064 11.612 53.0064 12.4983C53.0064 13.3845 53.2939 14.1058 53.8701 14.6608C54.4464 15.2158 55.1289 15.4933 55.9189 15.4933C56.7564 15.4933 57.4551 15.2145 58.0139 14.6558C58.3764 14.292 58.5864 13.7858 58.6426 13.137H55.9189V12.2358H59.5526C59.5901 12.432 59.6064 12.6208 59.6064 12.802Z" stroke="white" strokeWidth="0.333333" stroke-miterlimit="10"/>
<path d="M65.3689 9.67125H61.9539V12.0488H65.0339V12.95H61.9539V15.3275H65.3689V16.25H60.9902V8.75H65.3689V9.67125Z" stroke="white" strokeWidth="0.333333" stroke-miterlimit="10"/>
<path d="M69.4324 16.25H68.4685V9.67125H66.3735V8.75H71.5274V9.67125H69.4324V16.25Z" stroke="white" strokeWidth="0.333333" stroke-miterlimit="10"/>
<path d="M75.2561 16.25V8.75H76.2199V16.25H75.2561Z" stroke="white" strokeWidth="0.333333" stroke-miterlimit="10"/>
<path d="M80.4937 16.25H79.5301V9.67125H77.4351V8.75H82.5887V9.67125H80.4937V16.25Z" stroke="white" strokeWidth="0.333333" stroke-miterlimit="10"/>
<path d="M92.3446 15.282C91.6071 16.0395 90.691 16.4183 89.5946 16.4183C88.4985 16.4183 87.5821 16.0395 86.846 15.282C86.1085 14.5245 85.741 13.597 85.741 12.5008C85.741 11.4045 86.1085 10.477 86.846 9.71953C87.5821 8.96203 88.4985 8.58203 89.5946 8.58203C90.6846 8.58203 91.5996 8.96328 92.3396 9.72453C93.0796 10.4858 93.4496 11.4108 93.4496 12.5008C93.4496 13.597 93.081 14.5245 92.3446 15.282ZM87.5571 14.6533C88.1121 15.2158 88.791 15.4958 89.5946 15.4958C90.3985 15.4958 91.0785 15.2145 91.6321 14.6533C92.1871 14.0908 92.466 13.3733 92.466 12.5008C92.466 11.6283 92.1871 10.9108 91.6321 10.3483C91.0785 9.78578 90.3985 9.50578 89.5946 9.50578C88.791 9.50578 88.1121 9.78703 87.5571 10.3483C87.0035 10.9108 86.7246 11.6283 86.7246 12.5008C86.7246 13.3733 87.0035 14.0908 87.5571 14.6533Z" stroke="white" strokeWidth="0.333333" stroke-miterlimit="10"/>
<path d="M94.8025 16.25V8.75H95.975L99.62 14.5838H99.6613L99.62 13.1388V8.75H100.584V16.25H99.5775L95.7638 10.1325H95.7225L95.7638 11.5775V16.25H94.8025Z" stroke="white" strokeWidth="0.333333" stroke-miterlimit="10"/>
<g filter="url(#filter0_dd_2360_8054)">
<path d="M13.3783 9.42328C13.0146 9.80828 12.7996 10.4058 12.7996 11.1795V38.8245C12.7996 39.5995 13.0146 40.1958 13.3783 40.5808L13.4708 40.6708L28.957 25.1845V25.002V24.8195L13.4708 9.33203L13.3783 9.42328Z" fill="url(#paint0_linear_2360_8054)"/>
<path d="M34.1179 30.3476L28.9565 25.1837V25.0012V24.8187L34.119 19.6562L34.2354 19.7226L40.3515 23.1976C42.0979 24.1901 42.0979 25.8137 40.3515 26.8076L34.2354 30.2826L34.1179 30.3476Z" fill="url(#paint1_linear_2360_8054)"/>
<g filter="url(#filter1_d_2360_8054)">
<path d="M34.2364 30.28L28.9564 25L13.3789 40.5788C13.9539 41.1888 14.9052 41.2638 15.9764 40.6563L34.2364 30.28Z" fill="url(#paint2_linear_2360_8054)"/>
</g>
<path d="M34.2359 19.7208L15.9759 9.34588C14.9047 8.73713 13.9534 8.81338 13.3784 9.42338L28.9572 25.0021L34.2359 19.7208Z" fill="url(#paint3_linear_2360_8054)"/>
</g>
<path d="M155.75 0.832031H13.6665C6.76294 0.832031 1.1665 6.42847 1.1665 13.332V36.6654C1.1665 43.5689 6.76294 49.1654 13.6665 49.1654H155.75C162.653 49.1654 168.25 43.5689 168.25 36.6654V13.332C168.25 6.42847 162.653 0.832031 155.75 0.832031Z" stroke="#A6A6A6" strokeWidth="1.66667"/>
</g>
<defs>
<filter id="filter0_dd_2360_8054" x="12.7996" y="8.67578" width="28.8618" height="32.6484" filterUnits="userSpaceOnUse" color-interpolation-filters="sRGB">
<feFlood flood-opacity="0" result="BackgroundImageFix"/>
<feColorMatrix in="SourceAlpha" type="matrix" values="0 0 0 0 0 0 0 0 0 0 0 0 0 0 0 0 0 0 127 0" result="hardAlpha"/>
<feOffset dy="-0.25"/>
<feComposite in2="hardAlpha" operator="out"/>
<feColorMatrix type="matrix" values="0 0 0 0 0 0 0 0 0 0 0 0 0 0 0 0 0 0 0.12 0"/>
<feBlend mode="normal" in2="BackgroundImageFix" result="effect1_dropShadow_2360_8054"/>
<feColorMatrix in="SourceAlpha" type="matrix" values="0 0 0 0 0 0 0 0 0 0 0 0 0 0 0 0 0 0 127 0" result="hardAlpha"/>
<feOffset dy="0.25"/>
<feComposite in2="hardAlpha" operator="out"/>
<feColorMatrix type="matrix" values="0 0 0 0 1 0 0 0 0 1 0 0 0 0 1 0 0 0 0.25 0"/>
<feBlend mode="normal" in2="effect1_dropShadow_2360_8054" result="effect2_dropShadow_2360_8054"/>
<feBlend mode="normal" in="SourceGraphic" in2="effect2_dropShadow_2360_8054" result="shape"/>
</filter>
<filter id="filter1_d_2360_8054" x="13.3789" y="24.75" width="20.8574" height="16.3242" filterUnits="userSpaceOnUse" color-interpolation-filters="sRGB">
<feFlood flood-opacity="0" result="BackgroundImageFix"/>
<feColorMatrix in="SourceAlpha" type="matrix" values="0 0 0 0 0 0 0 0 0 0 0 0 0 0 0 0 0 0 127 0" result="hardAlpha"/>
<feOffset dy="-0.25"/>
<feComposite in2="hardAlpha" operator="out"/>
<feColorMatrix type="matrix" values="0 0 0 0 0 0 0 0 0 0 0 0 0 0 0 0 0 0 0.08 0"/>
<feBlend mode="normal" in2="BackgroundImageFix" result="effect1_dropShadow_2360_8054"/>
<feBlend mode="normal" in="SourceGraphic" in2="effect1_dropShadow_2360_8054" result="shape"/>
</filter>
<linearGradient id="paint0_linear_2360_8054" x1="27.5843" y1="10.887" x2="6.60681" y2="31.8645" gradientUnits="userSpaceOnUse">
<stop stop-color="#00A0FF"/>
<stop offset="0.0066" stop-color="#00A1FF"/>
<stop offset="0.2601" stop-color="#00BEFF"/>
<stop offset="0.5122" stop-color="#00D2FF"/>
<stop offset="0.7604" stop-color="#00DFFF"/>
<stop offset="1" stop-color="#00E3FF"/>
</linearGradient>
<linearGradient id="paint1_linear_2360_8054" x1="42.6247" y1="25.0012" x2="12.3798" y2="25.0012" gradientUnits="userSpaceOnUse">
<stop stop-color="#FFE000"/>
<stop offset="0.4087" stop-color="#FFBD00"/>
<stop offset="0.7754" stop-color="#FFA500"/>
<stop offset="1" stop-color="#FF9C00"/>
</linearGradient>
<linearGradient id="paint2_linear_2360_8054" x1="31.3691" y1="27.8675" x2="2.92092" y2="56.3155" gradientUnits="userSpaceOnUse">
<stop stop-color="#FF3A44"/>
<stop offset="1" stop-color="#C31162"/>
</linearGradient>
<linearGradient id="paint3_linear_2360_8054" x1="9.45517" y1="0.220625" x2="22.1581" y2="12.9235" gradientUnits="userSpaceOnUse">
<stop stop-color="#32A071"/>
<stop offset="0.0685" stop-color="#2DA771"/>
<stop offset="0.4762" stop-color="#15CF74"/>
<stop offset="0.8009" stop-color="#06E775"/>
<stop offset="1" stop-color="#00F076"/>
</linearGradient>
<clipPath id="clip0_2360_8054">
<rect width="170" height="50" fill="white" transform="translate(0.333252)"/>
</clipPath>
</defs>
</svg>
