<svg width="567" height="567" viewBox="0 0 567 567" fill="none" xmlns="http://www.w3.org/2000/svg">
<rect x="566.674" y="0.0566406" width="566.279" height="566.279" rx="2.63999" transform="rotate(90 566.674 0.0566406)" fill="white"/>
<path fillRule="evenodd" clipRule="evenodd" d="M542.801 136.053L542.801 150.069L528.785 150.069L528.785 164.084L542.801 164.084L542.801 206.13L528.785 206.13L528.785 248.177L514.77 248.177L514.77 262.192L528.785 262.192L528.785 276.208L542.801 276.208L542.801 304.238L528.785 304.238L528.785 318.254L542.801 318.254L542.801 346.285L514.77 346.285L514.77 360.3L486.739 360.3L486.739 374.316L500.754 374.316L500.754 388.331L514.77 388.331L514.77 374.316L528.785 374.316L528.785 360.3L542.801 360.3L542.801 430.377L528.785 430.377L528.785 388.331L514.77 388.331L514.77 416.362L500.754 416.362L500.754 430.377L472.724 430.377L472.724 402.347L486.739 402.347L486.739 388.331L458.708 388.331L458.708 402.347L416.662 402.347L416.662 430.377L430.677 430.377L430.677 500.455L402.646 500.455L402.646 514.47L416.662 514.47L416.662 528.485L430.677 528.485L430.677 542.501L416.662 542.501L416.662 528.485L402.646 528.485L402.646 514.47L388.631 514.47L388.631 528.485L374.615 528.485L374.615 542.501L360.6 542.501L360.6 500.455L346.585 500.455L346.585 514.47L332.569 514.47L332.569 542.501L304.538 542.501L304.538 528.485L290.523 528.485L290.523 514.47L304.538 514.47L304.538 486.439L276.507 486.439L276.507 458.408L262.492 458.408L262.492 472.424L248.477 472.424L248.477 486.439L262.492 486.439L262.492 500.455L276.507 500.455L276.507 528.485L262.492 528.485L262.492 514.47L248.477 514.47L248.477 528.485L234.461 528.485L234.461 514.47L206.43 514.47L206.43 528.485L192.415 528.485L192.415 486.439L178.399 486.439L178.399 514.47L150.368 514.47L150.368 528.485L164.384 528.485L164.384 542.501L150.368 542.501L150.368 528.485L136.353 528.485L136.353 500.455L164.384 500.455L164.384 486.439L108.322 486.439L108.322 514.47L122.338 514.47L122.338 528.485L108.322 528.485L108.322 542.501L94.3067 542.501L94.3067 528.485L108.322 528.485L108.322 514.47L80.2913 514.47L80.2913 528.485L38.2449 528.485L38.2449 542.501L24.2295 542.501L24.2295 500.455L52.2604 500.455L52.2604 514.47L66.2758 514.47L66.2758 486.439L80.2913 486.439L80.2913 472.424L66.2758 472.424L66.2758 458.408L52.2604 458.408L52.2604 444.393L38.2449 444.393L38.2449 430.377L66.2758 430.377L66.2758 416.362L136.353 416.362L136.353 402.347L150.368 402.347L150.368 388.331L164.384 388.331L164.384 374.316L136.353 374.316L136.353 388.331L108.322 388.331L108.322 402.347L94.3067 402.347L94.3067 388.331L108.322 388.331L108.322 374.316L80.2913 374.316L80.2913 388.331L66.2758 388.331L66.2758 360.3L38.2449 360.3L38.2449 374.316L24.2295 374.316L24.2295 360.3L38.2449 360.3L38.245 346.285L24.2295 346.285L24.2295 318.254L38.245 318.254L38.245 276.208L24.2295 276.208L24.2295 248.177L38.245 248.177L38.245 234.161L24.2295 234.161L24.2295 220.146L38.245 220.146L38.245 234.161L52.2604 234.161L52.2604 206.13L38.245 206.13L38.245 192.115L52.2604 192.115L52.2604 164.084L24.2295 164.084L24.2295 136.053L38.245 136.053L38.245 150.069L52.2604 150.069L52.2604 164.084L66.2758 164.084L66.2758 150.069L80.2913 150.069L80.2913 136.053L94.3067 136.053L94.3067 150.069L80.2913 150.069L80.2913 178.099L108.322 178.099L108.322 164.084L122.338 164.084L122.338 150.069L108.322 150.069L108.322 136.053L136.353 136.053L136.353 164.084L122.338 164.084L122.338 178.099L108.322 178.099L108.322 192.115L150.368 192.115L150.368 178.1L164.384 178.1L164.384 192.115L150.368 192.115L150.368 206.13L164.384 206.13L164.384 220.146L178.399 220.146L178.399 178.1L192.415 178.1L192.415 150.069L178.399 150.069L178.399 164.084L164.384 164.084L164.384 150.069L150.368 150.069L150.368 122.038L136.353 122.038L136.353 94.0069L150.368 94.0069L150.368 79.9914L136.353 79.9914L136.353 65.976L150.368 65.976L150.368 51.9605L136.353 51.9605L136.353 23.9297L150.368 23.9297L150.368 51.9605L192.415 51.9606L192.415 65.976L178.399 65.976L178.399 122.038L164.384 122.038L164.384 136.053L192.415 136.053L192.415 150.069L206.43 150.069L206.43 122.038L192.415 122.038L192.415 94.0069L206.43 94.0069L206.43 65.976L248.477 65.976L248.477 79.9914L234.461 79.9914L234.461 94.0069L262.492 94.0069L262.492 79.9914L276.507 79.9914L276.507 94.0069L290.523 94.0069L290.523 79.9914L332.569 79.9914L332.569 65.976L290.523 65.976L290.523 37.9451L304.538 37.9451L304.538 23.9297L318.554 23.9297L318.554 37.9451L332.569 37.9451L332.569 51.9606L346.585 51.9606L346.585 37.9451L360.6 37.9451L360.6 51.9606L374.616 51.9606L374.616 23.9297L430.677 23.9297L430.677 37.9451L416.662 37.9451L416.662 79.9914L430.677 79.9914L430.677 94.0069L416.662 94.0069L416.662 108.022L430.677 108.022L430.677 136.053L500.754 136.053L500.754 150.069L528.785 150.069L528.785 136.053L542.801 136.053ZM542.801 23.9297L542.801 122.038L444.693 122.038L444.693 23.9297L542.801 23.9297ZM542.801 444.393L542.801 542.501L444.693 542.501L444.693 444.393L542.801 444.393ZM458.708 416.362L458.708 430.377L444.693 430.377L444.693 416.362L458.708 416.362ZM276.507 23.9297L276.507 37.9451L262.492 37.9451L262.492 51.9606L206.43 51.9606L206.43 37.9451L220.446 37.9451L220.446 23.9297L234.461 23.9297L234.461 37.9451L248.477 37.9451L248.477 23.9297L276.507 23.9297ZM192.415 23.9297L192.415 37.9451L178.399 37.9451L178.399 23.9297L192.415 23.9297ZM122.338 23.9297L122.338 122.038L24.2295 122.038L24.2296 23.9297L122.338 23.9297ZM52.2604 402.347L52.2604 416.362L38.2449 416.362L38.2449 402.347L52.2604 402.347ZM52.2604 472.424L52.2604 486.439L38.2449 486.439L38.2449 472.424L24.2295 472.424L24.2295 458.408L38.2449 458.408L38.2449 472.424L52.2604 472.424Z" fill="black"/>
<path fillRule="evenodd" clipRule="evenodd" d="M528.788 164.082L528.788 192.113L500.757 192.113L500.757 234.16L486.742 234.16L486.742 248.175L472.726 248.175L472.726 262.191L500.757 262.191L500.757 290.221L486.742 290.221L486.742 318.252L500.757 318.252L500.757 346.283L472.726 346.283L472.726 374.314L458.711 374.314L458.711 388.329L416.665 388.329L416.665 374.314L388.634 374.314L388.634 388.329L402.649 388.329L402.649 402.345L388.634 402.345L388.634 416.36L402.649 416.36L402.649 430.376L416.665 430.376L416.665 458.407L388.634 458.407L388.634 444.391L374.618 444.391L374.618 402.345L346.587 402.345L346.587 360.299L360.603 360.299L360.603 374.314L388.634 374.314L388.634 360.299L374.618 360.299L374.618 332.268L388.634 332.268L388.634 318.252L374.618 318.252L374.618 290.221L360.603 290.221L360.603 346.283L346.587 346.283L346.587 318.252L318.557 318.252L318.557 332.268L332.572 332.268L332.572 346.283L304.541 346.283L304.541 360.299L332.572 360.299L332.572 430.376L346.587 430.376L346.587 444.391L360.603 444.391L360.603 458.407L374.618 458.407L374.618 472.422L402.649 472.422L402.649 500.453L374.618 500.453L374.618 486.438L360.603 486.438L360.603 472.422L346.587 472.422L346.587 444.391L332.572 444.391L332.572 458.407L318.557 458.407L318.557 430.376L304.541 430.376L304.541 416.36L318.557 416.36L318.557 402.345L304.541 402.345L304.541 360.299L290.526 360.299L290.526 346.283L262.495 346.283L262.495 360.299L276.51 360.299L276.51 374.314L290.526 374.314L290.526 388.329L276.51 388.329L276.51 416.36L290.526 416.36L290.526 444.391L304.541 444.391L304.541 472.422L318.557 472.422L318.556 486.438L332.572 486.438L332.572 500.453L318.556 500.453L318.556 486.438L304.541 486.438L304.541 472.422L290.526 472.422L290.526 458.407L276.51 458.407L276.51 444.391L262.495 444.391L262.495 430.376L248.479 430.376L248.479 374.314L234.464 374.314L234.464 402.345L220.448 402.345L220.448 388.329L206.433 388.329L206.433 402.345L178.402 402.345L178.402 374.314L164.387 374.314L164.387 360.299L150.371 360.299L150.371 346.283L122.34 346.283L122.34 318.252L108.325 318.252L108.325 304.237L94.3095 304.237L94.3095 290.221L80.2941 290.221L80.2941 276.206L66.2786 276.206L66.2786 290.221L52.2632 290.221L52.2632 276.206L66.2786 276.206L66.2786 262.191L52.2632 262.191L52.2632 248.175L66.2786 248.175L66.2786 220.144L164.387 220.144L164.387 234.16L192.418 234.16L192.418 248.175L206.433 248.175L206.433 276.206L192.418 276.206L192.418 290.221L178.402 290.221L178.402 304.237L164.387 304.237L164.387 318.252L150.371 318.252L150.371 290.221L136.356 290.221L136.356 332.268L192.418 332.268L192.418 304.237L206.433 304.237L206.433 290.221L220.448 290.221L220.448 276.206L234.464 276.206L234.464 262.191L220.448 262.191L220.448 248.175L234.464 248.175L234.464 262.191L248.479 262.191L248.479 234.16L262.495 234.16L262.495 220.144L290.526 220.144L290.526 234.16L318.557 234.16L318.557 220.144L304.541 220.144L304.541 178.098L318.557 178.098L318.557 164.082L304.541 164.082L304.541 150.067L290.526 150.067L290.526 164.082L276.51 164.082L276.51 178.098L290.526 178.098L290.526 206.129L220.448 206.129L220.448 234.16L206.433 234.16L206.433 206.129L220.448 206.129L220.448 192.113L206.433 192.113L206.433 164.082L234.464 164.082L234.464 150.067L248.479 150.067L248.479 136.052L220.448 136.052L220.448 122.036L206.433 122.036L206.433 94.0053L234.464 94.0053L234.464 108.021L248.479 108.021L248.479 136.052L262.495 136.052L262.495 94.0053L276.51 94.0053L276.51 122.036L290.526 122.036L290.526 108.021L304.541 108.021L304.541 94.0053L332.572 94.0053L332.572 122.036L346.587 122.036L346.587 108.021L360.603 108.021L360.603 94.0053L346.587 94.0053L346.587 79.9899L360.603 79.9899L360.603 65.9744L346.587 65.9744L346.587 51.959L360.603 51.959L360.603 65.9744L374.618 65.9744L374.618 79.9899L388.634 79.9899L388.634 65.9744L402.649 65.9744L402.649 79.9899L416.665 79.9899L416.665 94.0053L388.634 94.0053L388.634 122.036L402.649 122.036L402.649 108.021L416.665 108.021L416.665 136.052L402.649 136.052L402.649 150.067L388.634 150.067L388.634 122.036L374.618 122.036L374.618 108.021L360.603 108.021L360.603 122.036L346.587 122.036L346.587 136.052L374.618 136.052L374.618 178.098L360.603 178.098L360.603 192.113L374.618 192.113L374.618 206.129L346.587 206.129L346.587 178.098L318.557 178.098L318.557 220.144L332.572 220.144L332.572 248.175L346.587 248.175L346.587 276.206L374.618 276.206L374.618 290.221L402.649 290.221L402.649 276.206L388.634 276.206L388.634 262.191L360.603 262.191L360.603 248.175L374.618 248.175L374.618 234.16L346.587 234.16L346.587 220.144L374.618 220.144L374.618 234.16L388.634 234.16L388.634 192.113L402.649 192.113L402.649 178.098L416.665 178.098L416.665 192.113L430.68 192.113L430.68 178.098L458.711 178.098L458.711 164.082L430.68 164.082L430.68 150.067L458.711 150.067L458.711 164.082L472.726 164.082L472.726 150.067L486.742 150.067L486.742 178.098L500.757 178.098L500.757 164.082L528.788 164.082ZM528.788 290.221L528.788 304.237L514.773 304.237L514.773 290.221L528.788 290.221ZM318.556 514.468L318.556 528.484L304.541 528.484L304.541 514.468L318.556 514.468ZM248.479 444.391L248.479 458.407L206.433 458.407L206.433 486.438L220.448 486.438L220.448 500.453L206.433 500.453L206.433 486.438L192.418 486.438L192.418 472.422L164.387 472.422L164.387 444.391L150.371 444.391L150.371 416.36L178.402 416.36L178.402 444.391L192.418 444.391L192.418 458.407L206.433 458.407L206.433 430.376L192.418 430.376L192.418 416.36L206.433 416.36L206.433 430.376L220.448 430.376L220.448 416.36L234.464 416.36L234.464 430.376L220.448 430.376L220.448 444.391L248.479 444.391ZM248.479 486.438L248.479 514.468L234.464 514.468L234.464 486.438L248.479 486.438ZM164.387 94.0053L164.387 122.036L150.371 122.036L150.371 94.0053L164.387 94.0053ZM136.356 360.299L136.356 374.314L122.34 374.314L122.34 360.299L136.356 360.299ZM136.356 430.376L136.356 472.422L94.3095 472.422L94.3095 430.376L136.356 430.376ZM108.325 192.113L108.325 206.129L66.2786 206.129L66.2787 178.098L80.2941 178.098L80.2941 192.113L108.325 192.113ZM108.325 332.268L108.325 346.283L94.3095 346.283L94.3095 360.299L66.2786 360.299L66.2786 346.283L38.2478 346.283L38.2478 332.268L52.2632 332.268L52.2632 304.237L80.2941 304.237L80.2941 318.252L94.3095 318.252L94.3095 332.268L108.325 332.268ZM80.2941 430.376L80.2941 444.391L66.2786 444.391L66.2786 430.376L80.2941 430.376Z" fill="white"/>
<path fillRule="evenodd" clipRule="evenodd" d="M416.66 94.0098L416.66 108.025L402.645 108.025L402.645 122.041L388.629 122.041L388.629 94.0098L416.66 94.0098ZM402.645 500.457L402.645 514.473L388.629 514.473L388.629 528.488L374.614 528.488L374.614 542.504L360.598 542.504L360.598 500.457L346.583 500.457L346.583 514.473L332.568 514.473L332.568 542.504L304.537 542.504L304.537 528.488L318.552 528.488L318.552 514.473L304.537 514.473L304.537 486.442L276.506 486.442L276.506 458.411L290.521 458.411L290.521 472.427L304.537 472.427L304.537 444.396L290.521 444.396L290.521 416.365L276.506 416.365L276.506 430.38L262.49 430.38L262.49 416.365L276.506 416.365L276.506 388.334L290.521 388.334L290.521 374.318L276.506 374.318L276.506 360.303L262.49 360.303L262.49 374.318L248.475 374.318L248.475 360.303L220.444 360.303L220.444 374.318L192.413 374.318L192.413 360.303L206.429 360.303L206.429 346.288L192.413 346.288L192.413 332.272L220.444 332.272L220.444 346.288L248.475 346.288L248.475 332.272L234.459 332.272L234.459 318.257L206.429 318.257L206.429 304.241L234.459 304.241L234.459 318.257L262.49 318.257L262.49 290.226L234.459 290.226L234.459 276.21L248.475 276.21L248.475 262.195L262.49 262.195L262.49 234.164L290.521 234.164L290.521 248.18L276.506 248.18L276.506 262.195L290.521 262.195L290.521 276.21L304.537 276.21L304.537 290.226L332.568 290.226L332.568 276.21L346.583 276.21L346.583 290.226L332.568 290.226L332.568 304.241L318.552 304.241L318.552 318.257L304.537 318.257L304.537 346.288L290.521 346.288L290.521 360.303L304.537 360.303L304.537 402.349L318.552 402.349L318.552 416.365L304.537 416.365L304.537 430.38L318.552 430.38L318.552 458.411L332.568 458.411L332.568 444.396L346.583 444.396L346.583 472.427L360.598 472.427L360.598 486.442L374.614 486.442L374.614 500.457L402.645 500.457ZM248.475 514.473L248.475 528.488L234.459 528.488L234.459 514.473L248.475 514.473Z" fill="black"/>
<path d="M528.287 107.519L528.287 38.4434L493.749 38.4434L459.211 38.4434L459.211 107.519L528.287 107.519Z" fill="#999999"/>
<path d="M528.287 527.982L528.287 458.906L493.749 458.906L459.211 458.906L459.211 527.982L528.287 527.982Z" fill="#999999"/>
<path d="M107.824 107.519L107.824 38.4433L73.286 38.4433L38.748 38.4433L38.748 107.519L107.824 107.519Z" fill="#999999"/>
<path d="M527.786 107.019L527.786 38.9443L493.749 38.9443L459.711 38.9443L459.711 107.019L527.786 107.019Z" fill="white"/>
<path d="M527.786 527.482L527.786 459.407L493.749 459.407L459.711 459.407L459.711 527.482L527.786 527.482Z" fill="white"/>
<path d="M486.741 248.175L486.741 234.159L479.733 234.159L472.725 234.159L472.725 248.175L486.741 248.175Z" fill="white"/>
<path d="M486.741 318.252L486.741 290.221L479.733 290.221L472.725 290.221L472.725 304.237L458.71 304.237L458.71 318.252L486.741 318.252Z" fill="white"/>
<path d="M472.725 374.314L472.725 346.283L458.71 346.283L444.695 346.283L444.695 360.298L430.679 360.298L430.679 374.314L416.664 374.314L416.664 388.329L458.71 388.329L458.71 374.314L472.725 374.314Z" fill="white"/>
<path d="M416.664 276.206L416.664 290.221L402.648 290.221L402.648 276.206L388.633 276.206L388.633 262.19L402.648 262.19L402.648 276.206L409.656 276.206L416.664 276.206Z" fill="white"/>
<path d="M304.54 304.237L304.54 318.252L290.525 318.252L290.525 346.283L304.54 346.283L304.54 360.298L290.525 360.298L290.525 346.283L262.494 346.283L262.494 360.298L248.478 360.298L248.478 346.283L262.494 346.283L262.494 332.267L276.509 332.267L276.509 304.237L290.525 304.237L304.54 304.237Z" fill="white"/>
<path d="M290.525 290.221L290.525 276.206L283.517 276.206L276.509 276.206L276.509 290.221L290.525 290.221Z" fill="white"/>
<path d="M192.417 276.206L192.417 290.221L178.401 290.221L178.401 304.237L164.386 304.237L164.386 318.252L150.37 318.252L150.37 290.221L178.401 290.221L178.401 276.206L164.386 276.206L164.386 262.19L178.401 262.19L178.401 276.206L185.409 276.206L192.417 276.206Z" fill="white"/>
<path d="M107.323 107.019L107.323 38.9443L73.2855 38.9443L39.248 38.9443L39.248 107.019L107.323 107.019Z" fill="white"/>
<path fillRule="evenodd" clipRule="evenodd" d="M486.738 206.131L486.738 234.162L472.723 234.162L472.723 248.177L458.707 248.177L458.707 262.193L444.692 262.193L444.692 276.208L486.738 276.208L486.738 290.224L472.723 290.224L472.723 304.239L458.707 304.239L458.707 318.255L486.738 318.255L486.738 332.27L472.723 332.27L472.723 346.285L444.692 346.285L444.692 360.301L458.707 360.301L458.707 374.316L444.692 374.316L444.692 360.301L430.677 360.301L430.677 374.316L416.661 374.316L416.661 388.332L458.707 388.332L458.707 402.347L416.661 402.347L416.661 430.378L402.646 430.378L402.646 416.363L388.63 416.363L388.63 402.347L374.615 402.347L374.615 388.332L388.63 388.332L388.63 374.316L416.661 374.316L416.661 360.301L430.677 360.301L430.677 346.285L416.661 346.285L416.661 332.27L458.707 332.27L458.707 318.255L430.677 318.255L430.677 304.239L458.707 304.239L458.707 290.224L416.661 290.224L416.661 318.255L388.63 318.255L388.63 304.239L402.646 304.239L402.646 290.224L416.661 290.224L416.661 276.208L402.646 276.208L402.646 262.193L388.63 262.193L388.63 248.177L416.661 248.177L416.661 276.208L430.677 276.208L430.677 234.162L444.692 234.162L444.692 220.147L416.661 220.147L416.661 206.131L402.646 206.131L402.646 192.116L416.661 192.116L416.661 206.131L430.677 206.131L430.677 192.116L458.707 192.116L458.707 206.131L444.692 206.131L444.692 220.147L458.707 220.147L458.707 234.162L472.723 234.162L472.723 206.131L486.738 206.131ZM402.646 332.27L402.646 346.285L388.63 346.285L388.63 332.27L402.646 332.27ZM374.615 79.9922L374.615 94.0076L360.599 94.0076L360.599 79.9922L374.615 79.9922ZM360.599 150.069L360.599 178.1L346.584 178.1L346.584 164.085L332.568 164.085L332.568 150.069L360.599 150.069ZM332.568 248.177L332.568 262.193L304.538 262.193L304.538 248.177L332.568 248.177ZM318.553 108.023L318.553 150.069L304.538 150.069L304.538 108.023L318.553 108.023ZM304.538 318.255L304.538 346.285L290.522 346.285L290.522 318.255L304.538 318.255ZM276.507 136.054L276.507 164.085L248.476 164.085L248.476 192.116L234.46 192.116L234.46 164.085L248.476 164.085L248.476 150.069L262.491 150.069L262.491 136.054L276.507 136.054ZM262.491 360.301L262.491 374.316L248.476 374.316L248.476 360.301L262.491 360.301ZM234.46 108.023L234.46 122.038L220.445 122.038L220.445 108.023L234.46 108.023ZM192.414 248.177L192.414 276.208L178.399 276.208L178.399 290.224L150.368 290.224L150.368 276.208L122.337 276.208L122.337 290.224L108.321 290.224L108.321 276.208L122.337 276.208L122.337 248.177L94.3061 248.177L94.3061 262.193L80.2906 262.193L80.2906 248.177L94.3061 248.177L94.3061 234.162L150.368 234.162L150.368 248.177L136.352 248.177L136.352 262.193L164.383 262.193L164.383 248.177L192.414 248.177ZM122.337 444.394L122.337 458.409L108.321 458.409L108.321 444.394L122.337 444.394ZM80.2906 318.255L80.2906 346.285L66.2752 346.285L66.2752 360.301L38.2443 360.301L38.2443 346.285L66.2752 346.285L66.2752 318.255L80.2906 318.255Z" fill="black"/>
<path d="M458.709 248.179L458.709 234.164L451.701 234.164L444.694 234.164L444.694 248.179L458.709 248.179Z" fill="white"/>
<path d="M514.771 94.0053L514.771 51.959L493.748 51.959L472.725 51.959L472.725 94.0053L514.771 94.0053Z" fill="black"/>
<path d="M514.771 514.468L514.771 472.422L493.748 472.422L472.725 472.422L472.725 514.468L514.771 514.468Z" fill="black"/>
<path d="M94.3083 94.0053L94.3083 51.959L73.2852 51.959L52.2621 51.959L52.2621 94.0053L94.3083 94.0053Z" fill="black"/>
</svg>
