<svg width="34" height="33" viewBox="0 0 34 33" fill="none" xmlns="http://www.w3.org/2000/svg">
<path d="M17.1853 30.2475C24.7176 30.2475 30.8237 24.1414 30.8237 16.6091C30.8237 9.07683 24.7176 2.9707 17.1853 2.9707C9.653 2.9707 3.54688 9.07683 3.54688 16.6091C3.54688 24.1414 9.653 30.2475 17.1853 30.2475Z" stroke="black" stroke-width="2.18215" stroke-linecap="round" stroke-linejoin="round"/>
<path d="M11.7422 20.0325C11.9877 20.4416 12.2877 20.8235 12.6287 21.1645C15.1381 23.6739 19.216 23.6739 21.7391 21.1645C22.762 20.1416 23.3485 18.8459 23.5394 17.5229" stroke="black" stroke-width="2.18215" stroke-linecap="round" stroke-linejoin="round"/>
<path d="M10.832 15.695C11.023 14.3584 11.6094 13.0764 12.6323 12.0535C15.1418 9.54402 19.2197 9.54402 21.7428 12.0535C22.0974 12.4081 22.3838 12.79 22.6293 13.1855" stroke="black" stroke-width="2.18215" stroke-linecap="round" stroke-linejoin="round"/>
<path d="M11.4883 23.6737V20.0322H15.1297" stroke="black" stroke-width="2.18215" stroke-linecap="round" stroke-linejoin="round"/>
<path d="M22.8875 9.54443V13.1859H19.2461" stroke="black" stroke-width="2.18215" stroke-linecap="round" stroke-linejoin="round"/>
</svg>
