<svg width="63" height="64" viewBox="0 0 63 64" fill="none" xmlns="http://www.w3.org/2000/svg">
<rect y="0.591309" width="62.8033" height="62.8033" rx="31.4016" fill="#0066FF"/>
<path d="M21.3438 28.6402V25.2875C21.3438 19.7388 23.0201 15.2295 31.4018 15.2295C39.7835 15.2295 41.4598 19.7388 41.4598 25.2875V28.6402" stroke="#292D32" strokeWidth="2.51451" strokeLinecap="round" stroke-linejoin="round"/>
<path d="M31.4008 42.889C33.7154 42.889 35.5917 41.0127 35.5917 38.6982C35.5917 36.3836 33.7154 34.5073 31.4008 34.5073C29.0863 34.5073 27.21 36.3836 27.21 38.6982C27.21 41.0127 29.0863 42.889 31.4008 42.889Z" stroke="#292D32" strokeWidth="2.51451" strokeLinecap="round" stroke-linejoin="round"/>
<path d="M39.7828 48.7562H23.0194C16.314 48.7562 14.6377 47.0799 14.6377 40.3745V37.0218C14.6377 30.3165 16.314 28.6401 23.0194 28.6401H39.7828C46.4882 28.6401 48.1645 30.3165 48.1645 37.0218V40.3745C48.1645 47.0799 46.4882 48.7562 39.7828 48.7562Z" stroke="#292D32" strokeWidth="2.51451" strokeLinecap="round" stroke-linejoin="round"/>
</svg>
