<svg width="34" height="33" viewBox="0 0 34 33" fill="none" xmlns="http://www.w3.org/2000/svg">
<path d="M15.1286 3.08736L8.32308 5.63773C6.75466 6.22418 5.47266 8.07899 5.47266 9.75652V19.8898C5.47266 21.4992 6.53647 23.6131 7.83212 24.5815L13.6966 28.9594C15.6196 30.4051 18.7837 30.4051 20.7067 28.9594L26.5713 24.5815C27.8669 23.6131 28.9307 21.4992 28.9307 19.8898V9.75652C28.9307 8.07899 27.6487 6.22418 26.0803 5.63773L19.2747 3.08736C18.1155 2.66457 16.2606 2.66457 15.1286 3.08736Z" stroke="black" stroke-width="2.18215" stroke-linecap="round" stroke-linejoin="round"/>
<path d="M17.1892 14.9389C17.1347 14.9389 17.0665 14.9389 17.0119 14.9389C15.7299 14.898 14.707 13.8342 14.707 12.5386C14.707 11.2156 15.7845 10.1382 17.1074 10.1382C18.4303 10.1382 19.5078 11.2156 19.5078 12.5386C19.4941 13.8478 18.4712 14.898 17.1892 14.9389Z" stroke="black" stroke-width="2.18215" stroke-linecap="round" stroke-linejoin="round"/>
<path d="M14.4742 18.7577C13.1649 19.6305 13.1649 21.0626 14.4742 21.9354C15.9607 22.931 18.402 22.931 19.8886 21.9354C21.1979 21.0626 21.1979 19.6305 19.8886 18.7577C18.4157 17.7621 15.9744 17.7621 14.4742 18.7577Z" stroke="black" stroke-width="2.18215" stroke-linecap="round" stroke-linejoin="round"/>
</svg>
