<svg width="27" height="28" viewBox="0 0 27 28" fill="none" xmlns="http://www.w3.org/2000/svg">
<path id="Vector" fill-rule="evenodd" clip-rule="evenodd" d="M12.8797 0.0801214C11.951 0.305217 11.2325 0.972592 10.9535 1.86916C10.8625 2.16128 10.8424 2.40917 10.8424 3.23971C10.8424 4.45032 10.9265 4.81058 11.3402 5.37255C12.7455 7.28141 15.7739 6.51947 16.1132 4.17162C16.1882 3.65352 16.1879 2.8262 16.1126 2.30324C15.9886 1.44171 15.4463 0.682992 14.6892 0.31172C14.0357 -0.00875667 13.5191 -0.0749025 12.8797 0.0801214ZM12.9684 0.777084C12.4135 0.950505 11.9808 1.30877 11.7071 1.82153C11.5867 2.04698 11.5733 2.1624 11.5558 3.124C11.5383 4.08186 11.5479 4.20958 11.6601 4.50943C11.8309 4.96595 12.1729 5.33453 12.638 5.56349C12.9687 5.72631 13.083 5.7522 13.4703 5.7522C14.2603 5.7522 14.8938 5.35187 15.2506 4.62702L15.4416 4.23911V3.24188C15.4416 2.26475 15.4382 2.23721 15.2714 1.87608C14.8618 0.989056 13.8441 0.50342 12.9684 0.777084ZM6.08427 1.5631C5.38672 1.74502 4.85538 2.20124 4.52864 2.89873C4.37174 3.23362 4.36846 3.26344 4.36846 4.35382V5.467L4.55553 5.86194C4.89663 6.58193 5.53371 7.06405 6.32928 7.20419C7.5342 7.41645 8.75734 6.56523 9.01894 5.3323C9.10342 4.93402 9.10395 3.77749 9.01982 3.37535C8.82372 2.43811 8.05581 1.69492 7.09514 1.51277C6.68356 1.43468 6.55115 1.4413 6.08427 1.5631ZM19.8167 1.51641C18.9031 1.69621 18.129 2.46208 17.938 3.37535C17.9022 3.54613 17.873 3.98642 17.873 4.35382C17.873 4.72123 17.9022 5.16152 17.938 5.3323C18.1925 6.54918 19.4111 7.40474 20.6074 7.20647C21.4116 7.07325 22.0577 6.58919 22.4023 5.86194L22.5893 5.467V4.35382C22.5893 3.26344 22.586 3.23362 22.4291 2.89873C22.0919 2.17892 21.5306 1.71121 20.806 1.5464C20.3623 1.44552 20.2018 1.44065 19.8167 1.51641ZM6.26103 2.23552C5.72793 2.38527 5.28794 2.80089 5.11012 3.32262C5.00677 3.62569 5.02154 5.13006 5.13086 5.43987C5.26444 5.81852 5.58351 6.16882 5.96562 6.35648C6.40627 6.57285 6.97808 6.58157 7.40103 6.37839C7.77869 6.197 8.18178 5.73814 8.29327 5.36277C8.41244 4.96144 8.41296 3.74791 8.29415 3.34775C8.05317 2.53637 7.08178 2.00497 6.26103 2.23552ZM19.8943 2.2081C19.5465 2.2985 19.2725 2.46905 19.0151 2.75548C18.6616 3.14867 18.576 3.46001 18.576 4.35382C18.576 5.24928 18.6614 5.55874 19.0173 5.95468C19.3807 6.35888 19.7246 6.51642 20.2499 6.5193C20.794 6.52228 21.2555 6.30053 21.5694 5.88514C21.8671 5.49131 21.9156 5.27676 21.9156 4.35382C21.9156 3.43089 21.8671 3.21634 21.5694 2.82251C21.2107 2.34795 20.4416 2.06584 19.8943 2.2081ZM10.901 6.8014C10.4442 6.95771 10.0727 7.17302 9.76641 7.45905L9.5399 7.67055L9.2977 7.55683C8.97547 7.4055 8.63138 7.31322 8.38783 7.31287C8.23216 7.31258 8.12664 7.3707 7.90342 7.5795C7.51534 7.94252 7.21132 8.07141 6.74127 8.07229C6.27227 8.07317 5.87733 7.90232 5.54297 7.5539C5.34354 7.34603 5.2771 7.31252 5.06483 7.31252C4.75777 7.31252 4.18988 7.48588 3.85587 7.68162C3.55074 7.86043 3.12774 8.30178 2.91735 8.66092C2.63179 9.14826 2.58146 9.4958 2.5824 10.9719C2.58293 11.7144 2.60267 12.3508 2.62634 12.3862C2.75201 12.5744 2.93241 12.5854 5.88788 12.5854H8.85044V13.05C8.85044 13.3941 8.87429 13.5383 8.94248 13.6066C9.02462 13.6887 9.5187 13.6986 13.5006 13.6986C16.8962 13.6986 17.9836 13.6817 18.037 13.6283C18.0805 13.5849 18.1073 13.3718 18.1073 13.0717V12.5854H21.0699C24.0254 12.5854 24.2058 12.5744 24.3314 12.3862C24.3969 12.2882 24.3846 9.77468 24.3169 9.41501C24.2334 8.97173 24.007 8.53847 23.6611 8.15994C23.3171 7.78351 22.9909 7.57751 22.4941 7.4229C21.9399 7.25042 21.7931 7.27121 21.4906 7.56521C21.0913 7.9533 20.8592 8.04487 20.2751 8.04487C19.8419 8.04487 19.7428 8.02466 19.5135 7.88973C19.3685 7.80442 19.1635 7.63962 19.058 7.52355C18.8919 7.34082 18.8307 7.31252 18.6021 7.31252C18.3415 7.31252 17.6763 7.50234 17.5385 7.61595C17.4882 7.65749 17.3705 7.59526 17.132 7.40099C16.7432 7.08426 16.3918 6.89543 15.9436 6.76249C15.3952 6.59974 15.2678 6.62645 14.8802 6.9853C14.063 7.74191 13.012 7.74191 12.1948 6.9853C11.8766 6.69084 11.8316 6.66817 11.5669 6.66957C11.4102 6.67039 11.1105 6.72974 10.901 6.8014ZM11.1322 7.45606C10.4894 7.69287 10.0145 8.1157 9.74684 8.68934L9.58279 9.04087L9.56592 11.0182L9.54904 12.9956H13.5115H17.4738L17.4486 11.1061C17.4203 8.99142 17.4009 8.86832 17.0088 8.30688C16.7437 7.92752 16.2998 7.60253 15.8561 7.46291L15.5329 7.36126L15.2529 7.59632C14.2169 8.46612 12.8059 8.47239 11.8295 7.61149C11.5378 7.35435 11.4571 7.33636 11.1322 7.45606ZM4.69069 8.07035C4.17998 8.22626 3.67214 8.6758 3.44048 9.17702C3.326 9.42468 3.31206 9.56775 3.29495 10.6673L3.27608 11.8836L6.04859 11.8683L8.82115 11.8531L8.85161 10.3884C8.87932 9.05727 8.8938 8.89481 9.01056 8.60702C9.08122 8.43284 9.12569 8.26873 9.1094 8.24237C9.09311 8.21595 8.94535 8.15449 8.78101 8.10568L8.48227 8.01698L8.24892 8.22778C8.12055 8.34373 7.86728 8.50766 7.686 8.59208C7.39711 8.7266 7.28052 8.7457 6.74127 8.74675C6.19757 8.74781 6.08784 8.73 5.79683 8.59355C5.61574 8.50859 5.36205 8.34384 5.23316 8.22737C4.99154 8.00907 4.94016 7.99419 4.69069 8.07035ZM18.2831 8.05711C18.2348 8.07487 18.1094 8.1242 18.0045 8.16679L17.8139 8.24419L17.9447 8.55464C18.0652 8.84044 18.078 8.98386 18.1061 10.3591L18.1366 11.8531L20.9092 11.8683L23.6817 11.8836L23.6628 10.6673C23.6457 9.56775 23.6318 9.42468 23.5173 9.17702C23.2799 8.66332 22.7689 8.21805 22.244 8.06754C22.0951 8.02483 22.0364 8.04651 21.8195 8.22421C21.2104 8.72332 20.31 8.91344 19.6228 8.68805C19.3096 8.58529 18.7683 8.26452 18.6329 8.10135C18.5605 8.01411 18.4413 7.99899 18.2831 8.05711ZM18.869 15.2128C18.6918 15.2728 18.1062 15.5631 17.5678 15.8578L16.5889 16.3937L15.2829 16.3927C13.7354 16.3914 13.4679 16.3464 12.5275 15.9293C11.4638 15.4574 11.0925 15.3756 10.0222 15.3774C8.95402 15.3791 8.49452 15.4782 7.64939 15.8889C7.07534 16.1678 6.76477 16.3852 6.05972 17.0017C5.63355 17.3744 4.96277 17.7714 4.86335 17.71C4.83997 17.6955 4.80318 17.6109 4.78162 17.522C4.65952 17.0184 4.38164 16.2102 4.30389 16.1324C4.22603 16.0546 3.93256 16.0421 2.16859 16.0421H0.123521L0.0327094 16.1808C-0.05113 16.3087 -0.00882941 16.7228 0.583671 21.5762C1.10657 25.8591 1.24425 26.8537 1.32668 26.9448C1.42376 27.0521 1.54949 27.0567 4.39775 27.0567C7.20048 27.0567 7.37303 27.0506 7.46454 26.9495C7.51786 26.8906 7.5615 26.7885 7.5615 26.7226C7.5615 26.6567 7.40332 26.0863 7.20998 25.4551C7.01664 24.8239 6.85845 24.2695 6.85845 24.223C6.85845 24.1392 9.03224 22.7242 9.34158 22.6066C9.64097 22.4928 10.0456 22.5445 12.6001 23.023C14.9704 23.4669 15.204 23.5005 15.9396 23.5033C16.3746 23.5049 16.8887 23.4729 17.0821 23.4322C17.5526 23.3331 18.2548 23.0992 18.5626 22.9392C18.9936 22.715 26.9011 17.2545 26.9635 17.138C27.0543 16.9681 26.9806 16.7873 26.6873 16.4611C26.5154 16.2698 26.2793 16.094 26.0289 15.9707C25.666 15.7919 25.5973 15.7785 25.047 15.7785C24.5452 15.7785 24.4098 15.7998 24.1551 15.919L23.8548 16.0594L23.6447 15.8749C23.2814 15.5559 22.8694 15.3824 22.403 15.3518C22.0248 15.327 21.9437 15.3423 21.6 15.5031L21.2175 15.6821L21.0716 15.5673C20.9914 15.5042 20.775 15.3836 20.5909 15.2993C20.1375 15.0917 19.3437 15.0518 18.869 15.2128ZM18.9276 15.9441C18.7503 16.0215 18.4639 16.1645 18.291 16.2618L17.9767 16.4387L18.2031 16.5114C18.3277 16.5513 18.5534 16.6525 18.7047 16.7362L18.9797 16.8884L19.437 16.6443C19.6885 16.5101 20.0365 16.3223 20.2103 16.227L20.5263 16.0539L20.3275 15.9502C20.2061 15.887 19.9574 15.8382 19.6892 15.825C19.3231 15.807 19.1961 15.8269 18.9276 15.9441ZM9.08479 16.1298C8.16467 16.315 7.5151 16.6631 6.61185 17.4553C6.19541 17.8205 5.86895 18.0507 5.55645 18.1995C5.30762 18.318 5.10327 18.4404 5.10239 18.4717C5.09911 18.5896 6.59047 23.4242 6.63013 23.4242C6.65304 23.4242 7.15537 23.1164 7.74647 22.7401C8.93674 21.9824 9.24169 21.8467 9.75855 21.8449C9.9519 21.8442 11.2533 22.0539 12.6504 22.3109C14.0476 22.5678 15.3927 22.7949 15.6396 22.8155C16.2424 22.8658 17.0201 22.7563 17.6972 22.5258C18.2258 22.346 18.4385 22.2098 21.9156 19.8248C26.5714 16.6313 26.1615 16.9314 26.0446 16.8022C25.9925 16.7446 25.8154 16.6396 25.6511 16.569C25.4105 16.4654 25.2717 16.4452 24.9375 16.4646C24.5251 16.4886 24.5098 16.4957 22.2964 17.6924C20.1115 18.8738 20.0695 18.8999 20.0408 19.0943C19.9921 19.4237 19.919 19.4331 18.1073 19.3438C16.8717 19.2829 16.2749 19.2791 15.5469 19.3278C15.0247 19.3627 14.5436 19.3742 14.4778 19.3532C14.2388 19.2774 14.2554 18.8318 14.5007 18.7385C14.8045 18.623 16.3811 18.5611 17.5508 18.6187C18.1952 18.6505 18.8591 18.677 19.026 18.6775L19.3295 18.6786L19.2829 18.5158C19.1353 18.0013 18.6857 17.4881 18.1762 17.2526C17.9163 17.1325 17.7917 17.1242 15.7345 17.0902C13.3108 17.0501 13.3013 17.0488 12.3073 16.5995C11.6679 16.3104 11.3083 16.1908 10.817 16.1037C10.3581 16.0224 9.55854 16.0345 9.08479 16.1298ZM21.7632 16.1939C20.3396 16.9468 19.5135 17.408 19.5135 17.4499C19.5135 17.4774 19.5404 17.5165 19.5732 17.5368C19.606 17.5571 19.6987 17.7037 19.7792 17.8625C19.8597 18.0214 19.9384 18.1513 19.9542 18.1513C20.0389 18.1513 23.1459 16.4323 23.1459 16.3855C23.1459 16.2867 22.5384 16.0433 22.2905 16.0427C22.1439 16.0424 21.9382 16.1014 21.7632 16.1939ZM0.706706 16.7697C0.706706 16.8374 1.82257 25.9959 1.85116 26.1632L1.8838 26.3536H4.31362H6.7435L6.70911 26.2218C6.69018 26.1493 6.03499 23.994 5.25308 21.4322L3.83138 16.7745L2.26901 16.7589C1.40976 16.7503 0.706706 16.7551 0.706706 16.7697ZM3.73307 23.8612C3.31176 24.0114 2.99422 24.4531 2.99422 24.8889C2.99422 25.2969 3.33678 25.7976 3.71315 25.9398C4.28925 26.1574 4.99781 25.782 5.16203 25.1721C5.31219 24.6144 4.94221 23.9849 4.38111 23.8437C4.0495 23.7601 4.01388 23.7611 3.73307 23.8612ZM3.83853 24.6226C3.65802 24.8031 3.65497 25.0069 3.83027 25.1717C4.01623 25.3464 4.24343 25.3355 4.39347 25.1447C4.55295 24.9419 4.5468 24.7983 4.37109 24.6226C4.18865 24.4401 4.02097 24.4401 3.83853 24.6226Z" fill="black"/>
</svg>
