<svg width="20" height="11" viewBox="0 0 20 11" fill="none" xmlns="http://www.w3.org/2000/svg">
<path d="M8.44214 8.20159L7.78547 10.6516L6.1763 10.2199L6.83214 7.77076C5.85044 7.4087 4.93807 6.88106 4.13464 6.21076L2.34047 8.00576L1.1613 6.82659L2.9563 5.03242C1.94303 3.81889 1.26221 2.36306 0.980469 0.807422L1.73047 0.669922C4.13815 2.4059 7.03221 3.33793 10.0005 3.33326C13.0871 3.33326 15.943 2.34576 18.2705 0.669922L19.0205 0.806589C18.7391 2.36244 18.0586 3.81856 17.0455 5.03242L18.8396 6.82659L17.6605 8.00576L15.8663 6.21076C15.0629 6.88106 14.1505 7.4087 13.1688 7.77076L13.8246 10.2208L12.2155 10.6516L11.5588 8.20159C10.5274 8.37832 9.47351 8.37832 8.44214 8.20159Z" fill="#9A9C9D"/>
</svg>
