<svg width="69" height="13" viewBox="0 0 69 13" fill="none" xmlns="http://www.w3.org/2000/svg">
<g id="stars-coin-template.svg">
<path id="Vector" d="M6.17617 9.76617C6.30867 9.68616 6.47458 9.68616 6.60709 9.76617L9.07868 11.2579C9.39444 11.4485 9.78396 11.1654 9.70015 10.8062L9.0442 7.99494C9.00905 7.84421 9.06025 7.68639 9.17725 7.58503L11.3614 5.69293C11.6402 5.45143 11.4912 4.9935 11.1236 4.96233L8.24864 4.71849C8.09454 4.70542 7.96032 4.60813 7.89999 4.46574L6.77554 1.81283C6.63186 1.47385 6.15144 1.47385 6.00776 1.81284L4.88331 4.46574C4.82295 4.60813 4.68874 4.70542 4.53464 4.71849L1.65965 4.96233C1.29212 4.9935 1.14309 5.45143 1.42187 5.69293L3.60604 7.58503C3.72303 7.68639 3.77425 7.84421 3.73908 7.99494L3.08312 10.8062C2.99931 11.1654 3.38885 11.4485 3.70463 11.2579L6.17617 9.76617Z" fill="#FFC148"/>
<path id="Vector_2" d="M20.1117 9.76617C20.2442 9.68616 20.4101 9.68616 20.5426 9.76617L23.0142 11.2579C23.33 11.4485 23.7195 11.1654 23.6357 10.8062L22.9797 7.99494C22.9446 7.84421 22.9958 7.68639 23.1128 7.58503L25.297 5.69293C25.5758 5.45143 25.4267 4.9935 25.0592 4.96233L22.1842 4.71849C22.0301 4.70542 21.8959 4.60813 21.8355 4.46574L20.7111 1.81283C20.5674 1.47385 20.087 1.47385 19.9433 1.81284L18.8189 4.46574C18.7585 4.60813 18.6243 4.70542 18.4702 4.71849L15.5952 4.96233C15.2277 4.9935 15.0786 5.45143 15.3574 5.69293L17.5416 7.58503C17.6586 7.68639 17.7098 7.84421 17.6746 7.99494L17.0187 10.8062C16.9348 11.1654 17.3244 11.4485 17.6402 11.2579L20.1117 9.76617Z" fill="#FFC148"/>
<path id="Vector_3" d="M34.0473 9.76617C34.1798 9.68616 34.3457 9.68616 34.4782 9.76617L36.9497 11.2579C37.2655 11.4485 37.6551 11.1654 37.5712 10.8062L36.9153 7.99494C36.8801 7.84421 36.9313 7.68639 37.0483 7.58503L39.2325 5.69293C39.5113 5.45143 39.3622 4.9935 38.9947 4.96233L36.1197 4.71849C35.9656 4.70542 35.8314 4.60813 35.7711 4.46574L34.6466 1.81283C34.503 1.47385 34.0225 1.47385 33.8789 1.81284L32.7544 4.46574C32.694 4.60813 32.5598 4.70542 32.4057 4.71849L29.5307 4.96233C29.1632 4.9935 29.0142 5.45143 29.293 5.69293L31.4771 7.58503C31.5941 7.68639 31.6453 7.84421 31.6102 7.99494L30.9542 10.8062C30.8704 11.1654 31.26 11.4485 31.5757 11.2579L34.0473 9.76617Z" fill="#FFC148"/>
<path id="Vector_4" d="M47.9818 9.76617C48.1144 9.68616 48.2804 9.68616 48.413 9.76617L50.8843 11.2579C51.2003 11.4485 51.5897 11.1654 51.5059 10.8062L50.8501 7.99494C50.8146 7.84421 50.8659 7.68639 50.9831 7.58503L53.1671 5.69293C53.446 5.45143 53.2968 4.9935 52.9294 4.96233L50.0545 4.71849C49.9002 4.70542 49.766 4.60813 49.7055 4.46574L48.5814 1.81283C48.4376 1.47385 47.9572 1.47385 47.8134 1.81284L46.6888 4.46574C46.6288 4.60813 46.4945 4.70542 46.3403 4.71849L43.4654 4.96233C43.0976 4.9935 42.9488 5.45143 43.2277 5.69293L45.4117 7.58503C45.5289 7.68639 45.5797 7.84421 45.5447 7.99494L44.8888 10.8062C44.805 11.1654 45.1945 11.4485 45.5101 11.2579L47.9818 9.76617Z" fill="#FFC148"/>
<path id="Vector_5" d="M61.9173 9.76617C62.0499 9.68616 62.2158 9.68616 62.3484 9.76617L64.8201 11.2579C65.1358 11.4485 65.5252 11.1654 65.4414 10.8062L64.7855 7.99494C64.7505 7.84421 64.8013 7.68639 64.9185 7.58503L67.1025 5.69293C67.3815 5.45143 67.2326 4.9935 66.8649 4.96233L63.99 4.71849C63.8357 4.70542 63.7014 4.60813 63.6414 4.46574L62.5169 1.81283C62.373 1.47385 61.8927 1.47385 61.7492 1.81284L60.6247 4.46574C60.5642 4.60813 60.43 4.70542 60.2761 4.71849L57.4008 4.96233C57.0335 4.9935 56.8842 5.45143 57.1631 5.69293L59.3472 7.58503C59.4643 7.68639 59.5156 7.84421 59.4802 7.99494L58.8243 10.8062C58.7405 11.1654 59.1303 11.4485 59.446 11.2579L61.9173 9.76617Z" fill="#FFC148"/>
</g>
</svg>
