<svg width="63" height="64" viewBox="0 0 63 64" fill="none" xmlns="http://www.w3.org/2000/svg">
<rect y="0.591309" width="62.8033" height="62.8033" rx="31.4016" fill="#0066FF"/>
<path d="M20.4392 42.872V37.9771C20.4392 36.3511 21.7133 34.8926 23.5237 34.8926C25.1497 34.8926 26.6082 36.1667 26.6082 37.9771V42.6876C26.6082 45.9565 23.8925 48.6722 20.6236 48.6722C17.3548 48.6722 14.6391 45.9397 14.6391 42.6876V32.3614C14.4547 22.9403 21.8976 15.313 31.3187 15.313C40.7397 15.313 48.1659 22.9403 48.1659 32.177V42.5032C48.1659 45.7721 45.4502 48.4878 42.1814 48.4878C38.9125 48.4878 36.1968 45.7721 36.1968 42.5032V37.7927C36.1968 36.1667 37.4708 34.7082 39.2813 34.7082C40.9073 34.7082 42.3658 35.9823 42.3658 37.7927V42.872" stroke="#292D32" strokeWidth="2.51451" strokeLinecap="round" stroke-linejoin="round"/>
</svg>
