<svg width="35" height="27" viewBox="0 0 35 27" fill="none" xmlns="http://www.w3.org/2000/svg">
<path id="Vector" fill-rule="evenodd" clip-rule="evenodd" d="M16.6331 0.046802C15.6786 0.219407 13.2761 0.827027 13.1314 0.932297C12.5994 1.31975 12.4905 1.89425 12.8045 2.65667C13.0167 3.17171 13.0093 3.13086 12.8904 3.13086C12.6815 3.13086 12.0962 3.58543 11.8936 3.90496C11.7755 4.09106 11.6427 4.41789 11.5984 4.6312L11.5179 5.01909L11.1278 5.10006C10.1988 5.29288 9.48563 6.14992 9.48424 7.07525C9.48402 7.21845 9.53618 7.51187 9.60009 7.72729C9.70536 8.08162 9.84017 8.24489 11.0133 9.43876C12.3649 10.8141 12.4702 10.9703 12.3659 11.4455C12.313 11.6863 11.9755 12.0071 11.7032 12.0755C11.3477 12.1647 11.1249 12.0188 10.1501 11.0584C9.03726 9.96204 8.92148 9.77259 9.05236 9.26192C9.17018 8.80232 9.09788 8.54407 8.81855 8.42662C8.34757 8.22862 8.08757 8.41823 7.91701 9.08414C7.80904 9.50543 7.8345 9.96628 7.98748 10.362C8.02147 10.4501 7.93094 10.5381 7.63344 10.7059C6.78245 11.1863 6.42768 12.0976 6.70578 13.0889C6.7931 13.4001 6.92682 13.5731 7.6171 14.2677C8.3963 15.0519 8.4241 15.0908 8.375 15.3255C8.34699 15.4596 8.27236 15.8483 8.20925 16.1893C8.13258 16.6033 7.98281 17.0397 7.75833 17.5025L7.42217 18.1955L3.71108 21.9197C0.360604 25.282 0 25.6666 0 25.8774C0 26.341 0.485279 26.5938 0.891404 26.3417C1.28666 26.0964 8.04555 19.2592 8.36734 18.7791C8.9387 17.9268 9.1936 17.293 9.3762 16.2704C9.55529 15.2681 9.52524 15.3321 9.84236 15.2784C10.5856 15.1529 11.2915 14.4528 11.4514 13.6827L11.5322 13.2931L11.9213 13.2061C12.1353 13.1582 12.4627 13.0224 12.6489 12.9043C12.9745 12.6978 13.4232 12.1152 13.4232 11.8989C13.4232 11.8248 13.4702 11.8098 13.5874 11.8463C14.1392 12.0181 14.468 12.049 14.8457 11.9645C15.6927 11.7749 16.2967 11.1059 16.4486 10.189C16.4899 9.93943 16.5144 9.91535 16.7276 9.9147C17.288 9.91302 18.0987 9.30518 18.3673 8.68545C18.5186 8.33637 18.5186 7.4821 18.3673 7.13303C18.304 6.98705 18.1277 6.72967 17.9755 6.56115L17.6986 6.25468L19.3362 4.62638C20.7497 3.22088 21.0123 2.99086 21.2555 2.94542C21.9237 2.82045 22.5322 3.53392 22.2421 4.10229C22.1973 4.18991 21.5079 4.92002 20.7101 5.72475C19.4241 7.02177 19.2594 7.21466 19.2594 7.42418C19.2594 7.74013 19.5373 8.01867 19.8525 8.01867C20.0574 8.01867 20.2257 7.88144 21.1721 6.94262L22.2568 5.86657H22.649C22.9646 5.86657 23.0782 5.90144 23.231 6.04494C23.6444 6.43319 23.6089 6.92766 23.1298 7.45708C22.7219 7.90778 22.6683 8.0299 22.766 8.28691C22.9253 8.70588 23.2778 8.77927 23.746 8.49096C24.1891 8.21805 24.6039 8.2419 24.9205 8.55851C25.1338 8.77183 25.1686 8.85572 25.1686 9.15723V9.50784L23.2757 11.4078C22.2346 12.4527 21.3491 13.398 21.3078 13.5083C21.2154 13.7553 21.3028 14.0148 21.5325 14.1758C21.8991 14.4326 21.9653 14.3853 23.8189 12.5417L25.5794 10.7909H25.9413C26.3496 10.7909 26.5748 10.9149 26.7375 11.2294C26.8668 11.4796 26.8772 11.7613 26.7653 11.9811C26.7207 12.0688 25.8507 12.9791 24.8321 14.004C22.8801 15.968 22.8377 16.0266 23.0968 16.3966C23.2582 16.627 23.5175 16.7139 23.7642 16.6203C23.8745 16.5784 24.5302 15.9822 25.2213 15.2954L26.4778 14.0466L26.5884 14.3112C26.6492 14.4567 26.7502 14.8978 26.813 15.2914C26.8758 15.6849 27.0194 16.2759 27.132 16.6047C27.5398 17.7944 27.7626 18.0651 31.0632 21.3818C32.8839 23.2113 34.162 24.4405 34.2724 24.4682C34.6845 24.5717 35.0986 24.1586 34.9791 23.7635C34.9509 23.6703 33.5572 22.2152 31.8821 20.53C28.2556 16.8818 28.2946 16.9365 27.9501 15.0221C27.8742 14.6008 27.7133 14.0017 27.5925 13.6909L27.3728 13.1256L27.5841 12.8598C27.8126 12.5723 28.0137 11.9965 28.0137 11.6298C28.0137 10.8657 27.4639 10.0643 26.7314 9.76077L26.3358 9.59677V9.18167C26.3358 8.25328 25.7608 7.43461 24.9567 7.21809L24.6944 7.1474L24.6878 6.6894C24.6761 5.87883 24.2291 5.16536 23.5217 4.82795C23.3441 4.74325 23.2805 4.67256 23.3112 4.59356C23.472 4.17846 23.5103 3.77153 23.4247 3.38882C23.1783 2.28775 22.1167 1.57756 21.0477 1.79868C20.7336 1.86368 20.673 1.85748 20.6184 1.75483C20.4543 1.44632 19.5255 0.645667 19.0913 0.43841C18.3118 0.0664259 17.3616 -0.0849499 16.6331 0.046802ZM15.3356 1.52358C14.5216 1.715 13.8329 1.89432 13.8053 1.92204C13.7093 2.01805 14.1177 2.65368 14.4248 2.88625C14.6075 3.02457 14.8939 3.15326 15.127 3.20162C15.473 3.27341 15.62 3.2605 16.3391 3.0949C16.7891 2.99123 17.2191 2.92608 17.2946 2.95001C17.5306 3.02493 17.7072 3.33002 17.8004 3.82391C17.8498 4.08573 17.9132 4.31415 17.9415 4.33158C17.9696 4.34902 18.3941 3.96099 18.8846 3.46929L19.7764 2.57526L19.5501 2.29045C19.0079 1.6082 18.067 1.15371 17.2273 1.1683C17.0008 1.17224 16.1495 1.33215 15.3356 1.52358ZM13.1453 4.29999C12.8503 4.47982 12.6667 4.88091 12.7338 5.19935C12.8015 5.52136 15.904 8.64839 16.2508 8.7441C16.8822 8.91846 17.4481 8.39466 17.3288 7.74634C17.2857 7.51238 17.0487 7.24041 15.7337 5.91582C14.8842 5.06016 14.1006 4.31327 13.9923 4.25615C13.7186 4.11178 13.4294 4.12673 13.1453 4.29999ZM16.1756 4.32538L15.8275 4.40833L16.3377 4.91455C16.6182 5.193 16.8711 5.39756 16.8995 5.36918C16.9789 5.28974 16.7059 4.22391 16.6087 4.23383C16.5619 4.23857 16.3671 4.27979 16.1756 4.32538ZM11.1814 6.30305C10.7361 6.49659 10.5311 7.06897 10.755 7.49341C10.8121 7.60174 11.559 8.38452 12.4147 9.23288C14.0743 10.8784 14.1913 10.9587 14.6908 10.7938C15.1367 10.6467 15.3692 10.2081 15.2428 9.75267C15.163 9.46524 12.1198 6.39205 11.7953 6.27131C11.5347 6.17429 11.4697 6.17764 11.1814 6.30305ZM20.4108 10.1914C19.0926 11.5095 19.037 11.6025 19.3377 11.9847C19.4522 12.1303 19.5541 12.1769 19.758 12.1769C20.0086 12.1769 20.1087 12.0952 21.2117 10.9907C22.3115 9.88938 22.3964 9.78521 22.3964 9.53695C22.3964 9.33487 22.3494 9.23245 22.2041 9.11828C21.8219 8.81757 21.7289 8.87323 20.4108 10.1914ZM8.19357 11.7356C7.89315 11.9188 7.8059 12.0909 7.8059 12.5002C7.8059 12.8134 7.83698 12.8658 8.3313 13.3862C8.95548 14.0433 9.18112 14.1771 9.5758 14.1242C10.1008 14.0538 10.452 13.5179 10.2916 13.0319C10.2115 12.7894 9.29055 11.8243 8.99619 11.6745C8.75829 11.5534 8.45444 11.5766 8.19357 11.7356ZM21.7398 17.1877C21.6796 17.2104 21.023 17.828 20.2807 18.5598C19.526 19.3041 18.7968 19.9586 18.6264 20.0449C18.4588 20.1298 18.0649 20.2689 17.751 20.354C16.5513 20.6795 16.3969 20.7978 13.7634 23.4081C12.4459 24.714 11.3215 25.8712 11.2648 25.9795C11.2081 26.0879 11.1617 26.2453 11.1617 26.3294C11.1617 26.5659 11.4813 26.8404 11.7568 26.8404C11.9703 26.8404 12.2348 26.6007 14.4411 24.4081C15.7871 23.0703 17.0039 21.907 17.1449 21.8229C17.2859 21.7388 17.6963 21.5851 18.0568 21.4813C19.308 21.121 19.7529 20.8025 21.5027 19.0152C22.3697 18.1296 22.4693 18.0016 22.4693 17.7733C22.4693 17.3645 22.0857 17.0566 21.7398 17.1877ZM19.2721 21.9755C19.1735 22.0804 19.1135 22.2381 19.1135 22.392C19.1135 22.6191 19.2851 22.8116 21.1677 24.6986C22.3632 25.8968 23.298 26.7765 23.404 26.8031C23.8166 26.9066 24.2135 26.5097 24.1099 26.0971C24.0833 25.9911 23.2037 25.0564 22.0054 23.8608C20.0864 21.9462 19.929 21.8067 19.6887 21.8067C19.5134 21.8067 19.3799 21.8608 19.2721 21.9755Z" fill="black"/>
</svg>
