<svg width="24" height="24" viewBox="0 0 24 24" fill="none" xmlns="http://www.w3.org/2000/svg">
<path d="M5.20001 10.4599C5.01001 10.4599 4.81001 10.3799 4.67001 10.2399C4.56583 10.134 4.4951 9.99976 4.46665 9.85395C4.4382 9.70814 4.45328 9.55718 4.51002 9.41988L6.37001 4.97988C6.41001 4.88988 6.43001 4.82988 6.46001 4.77988C7.94001 1.36988 9.83002 0.539877 13.17 1.81988C13.36 1.88988 13.51 2.03988 13.59 2.22988C13.67 2.41988 13.67 2.62988 13.59 2.81988L10.66 9.61988C10.54 9.89988 10.27 10.0699 9.97002 10.0699H7.12001C6.55001 10.0699 6.01001 10.1799 5.49001 10.3999C5.40001 10.4399 5.30001 10.4599 5.20001 10.4599ZM10.61 2.74988C9.37001 2.74988 8.61001 3.55988 7.82001 5.39988C7.81001 5.42988 7.79001 5.45988 7.78001 5.48988L6.47001 8.59988C6.69001 8.57988 6.90001 8.56988 7.12001 8.56988H9.47002L11.88 2.96988C11.41 2.81988 10.99 2.74988 10.61 2.74988Z" fill="#A5B3CD"/>
<path d="M18.29 10.2702C18.22 10.2702 18.14 10.2602 18.07 10.2402C17.69 10.1302 17.29 10.0702 16.87 10.0702H9.97001C9.72001 10.0702 9.48001 9.94024 9.34001 9.73024C9.27403 9.62529 9.23414 9.50606 9.2237 9.38253C9.21326 9.259 9.23257 9.13477 9.28001 9.02024L12.18 2.29024C12.33 1.93024 12.77 1.68024 13.14 1.81024C13.26 1.85024 13.37 1.90024 13.49 1.95024L15.85 2.94024C17.23 3.51024 18.15 4.11024 18.75 4.83024C18.87 4.97024 18.97 5.12024 19.07 5.28024C19.18 5.45024 19.28 5.65024 19.35 5.86024C19.38 5.93024 19.43 6.06024 19.46 6.20024C19.74 7.15024 19.6 8.31024 19 9.81024C18.9374 9.94633 18.8375 10.0618 18.7118 10.1433C18.5861 10.2247 18.4398 10.2688 18.29 10.2702ZM11.11 8.57024H16.88C17.2 8.57024 17.51 8.60024 17.82 8.65024C18.1 7.78024 18.16 7.11024 18 6.57024C17.98 6.48024 17.96 6.44024 17.95 6.40024C17.89 6.24024 17.85 6.15024 17.8 6.07024C17.73 5.96024 17.68 5.87024 17.6 5.78024C17.17 5.26024 16.41 4.78024 15.27 4.31024L13.3 3.49024L11.11 8.57024Z" fill="#A5B3CD"/>
<path d="M15.9 22.7503H8.1C7.82 22.7503 7.56 22.7303 7.3 22.7003C3.79 22.4703 1.79 20.4603 1.55 16.9103C1.52 16.6903 1.5 16.4203 1.5 16.1503V14.2003C1.5 11.9503 2.84 9.92031 4.91 9.02031C5.62 8.72031 6.36 8.57031 7.13 8.57031H16.89C17.46 8.57031 18.01 8.65031 18.52 8.81031C20.87 9.52031 22.52 11.7403 22.52 14.2003V16.1503C22.52 16.3703 22.51 16.5803 22.5 16.7803C22.28 20.6903 20 22.7503 15.9 22.7503ZM7.12 10.0703C6.55 10.0703 6.01 10.1803 5.49 10.4003C3.97 11.0603 2.99 12.5503 2.99 14.2003V16.1503C2.99 16.3603 3.01 16.5703 3.03 16.7703C3.22 19.6203 4.62 21.0203 7.43 21.2103C7.68 21.2403 7.88 21.2603 8.09 21.2603H15.89C19.19 21.2603 20.81 19.8103 20.97 16.7103C20.98 16.5303 20.99 16.3503 20.99 16.1503V14.2003C20.99 12.3903 19.78 10.7703 18.06 10.2403C17.68 10.1303 17.28 10.0703 16.86 10.0703H7.12Z" fill="#A5B3CD"/>
<path d="M2.23999 14.9498C1.82999 14.9498 1.48999 14.6098 1.48999 14.1998V11.2698C1.48999 8.1198 3.71999 5.3998 6.79999 4.7998C7.06999 4.7498 7.34999 4.8498 7.52999 5.0598C7.69999 5.2698 7.74999 5.5698 7.63999 5.8198L5.88999 9.9998C5.81228 10.1757 5.67383 10.3177 5.49999 10.3998C3.97999 11.0598 2.99999 12.5498 2.99999 14.1998C2.98999 14.6098 2.65999 14.9498 2.23999 14.9498ZM5.59999 6.8198C4.95943 7.18092 4.40443 7.67614 3.97295 8.27159C3.54147 8.86703 3.2437 9.54864 3.09999 10.2698C3.53999 9.8198 4.04999 9.4398 4.62999 9.1598L5.59999 6.8198Z" fill="#A5B3CD"/>
<path d="M21.76 14.9498C21.35 14.9498 21.01 14.6098 21.01 14.1998C21.01 12.3898 19.8 10.7698 18.08 10.2398C17.9806 10.2104 17.8885 10.1607 17.8095 10.0937C17.7306 10.0267 17.6664 9.94402 17.6212 9.85083C17.576 9.75764 17.5508 9.65605 17.5472 9.55255C17.5435 9.44905 17.5615 9.34593 17.6 9.24978C18.07 8.07978 18.19 7.22978 18 6.56978C17.98 6.47978 17.96 6.43978 17.95 6.39978C17.8871 6.25787 17.8697 6.1 17.9002 5.94782C17.9306 5.79564 18.0074 5.6566 18.12 5.54978C18.35 5.32978 18.7 5.27978 18.98 5.42978C20.0468 5.98649 20.9403 6.82558 21.5628 7.85545C22.1853 8.88531 22.5129 10.0664 22.51 11.2698V14.1998C22.51 14.6098 22.17 14.9498 21.76 14.9498ZM19.25 9.08978C19.88 9.37978 20.44 9.78978 20.91 10.2798C20.72 9.29978 20.25 8.40978 19.56 7.70978C19.51 8.12978 19.41 8.58978 19.25 9.08978Z" fill="#A5B3CD"/>
</svg>
